<?xml version="1.0" encoding="utf-8"?>
<!-- Generator: Adobe Illustrator 26.1.0, SVG Export Plug-In . SVG Version: 6.00 Build 0)  -->
<svg version="1.1" xmlns="http://www.w3.org/2000/svg" xmlns:xlink="http://www.w3.org/1999/xlink" x="0px" y="0px"
	 viewBox="0 0 550 550" style="enable-background:new 0 0 550 550;" xml:space="preserve">
<style type="text/css">
	.st0{fill:none;}
	.st1{opacity:0.3;}
	.st2{fill:none;stroke:#7D7D7D;stroke-miterlimit:10;}
	.st3{fill:#7D7D7D;}
	.st4{display:none;}
	.st5{display:inline;}
	.st6{display:none;fill:#C6C6C6;}
	.st7{display:none;fill:url(#SVGID_1_);}
	.st8{clip-path:url(#SVGID_00000115515322901222233220000001542033188597967246_);}
	.st9{opacity:0.3;clip-path:url(#SVGID_00000106863536566648891360000004881457553984242081_);}
	.st10{fill:none;stroke:#7D7D7D;stroke-width:0.5004;stroke-miterlimit:10;}
	.st11{opacity:0.3;clip-path:url(#SVGID_00000151515401349433047280000002256289752337603234_);}
	.st12{opacity:0.3;clip-path:url(#SVGID_00000135680961366680723600000010080420881560986537_);}
	.st13{opacity:0.3;clip-path:url(#SVGID_00000119079544537687930100000016075951880502890909_);}
	.st14{opacity:0.3;clip-path:url(#SVGID_00000153668730654895111300000002374323313497973681_);}
	.st15{opacity:0.3;clip-path:url(#SVGID_00000179622909948608683730000003148311675813438881_);}
	.st16{opacity:0.3;clip-path:url(#SVGID_00000161600777461138074510000006601433532139957417_);}
	.st17{opacity:0.3;clip-path:url(#SVGID_00000004542068201361907620000007788084073264172986_);}
	.st18{opacity:0.3;clip-path:url(#SVGID_00000059281546059854571970000017197655393766721944_);}
</style>
<pattern  x="-3.5" y="326" width="1100" height="1100" patternUnits="userSpaceOnUse" id="New_Pattern_2" viewBox="39.1 -1156.6 1100 1100" style="overflow:visible;">
	<g>
		<rect x="39.1" y="-1156.6" class="st0" width="1100" height="1100"/>
		<g id="dark_00000155829887643325768880000009008833755754230689_" class="st1">
			<path class="st2" d="M1071.2-307.1c1.5-0.8,3.1-1.4,4.7-2c17.3-5.9,37.5,1.6,47.9,16.6c6,8.8,9.5,19.1,10.2,29.7
				c0.4,3,0.3,6.1-0.3,9.1c-1.2,5.5-5,10-8.7,14.4c-4.9,5.9-10.3,11.8-17.4,14.7c-16.4,6.8-39,3.5-54.6-15.1
				c-3.4-4-5.1-12.5-5.3-17.8c-0.4-5.7-0.2-11.4,0.7-17.1"/>
			<path class="st3" d="M1081.9-259.8c-1.5-1.5-3.9-1.5-5.5,0c-1.5,1.5-1.5,3.9,0,5.5c1.5,1.5,3.9,1.5,5.5,0
				C1083.4-255.8,1083.4-258.2,1081.9-259.8z M1102.2-266.5c-0.2-0.7-0.9-1.1-1.5-1s-1.1,0.9-1,1.5c0,0.2,0.1,0.3,0.1,0.5
				c0.4,1,1.4,4.3-0.7,6.6c-1.4,1.7-3.8,2.4-5.9,1.6c-0.1,0-0.2-0.1-0.3-0.1c-0.7-0.1-1.4,0.3-1.5,1c-0.1,0.7,0.3,1.4,1,1.5
				c2.9,1,6.1,0.3,8.2-1.9l0.3-0.3c2.1-2.3,2.5-5.3,1.3-9.2l0-0.1C1102.2-266.4,1102.2-266.4,1102.2-266.5z M1101.9-276.1
				c1.5-1.5,1.5-3.9,0-5.5c-1.5-1.5-3.9-1.5-5.5,0c-1.5,1.5-1.5,3.9,0,5.5C1097.9-274.6,1100.4-274.6,1101.9-276.1L1101.9-276.1z"/>
			<path class="st2" d="M1055.7-281.4c0.9,4.1,1.7,2.5,0.7,8.9c-0.4,3.7-1.4,7.4-2.9,10.8c5.8-3.3,9.3-12.9,10.2-19.1
				c0.4-2.6,0.6-5.6,2.7-7.1c1.1-0.7,2.3-1.1,3.6-1.3c7.5-1.9,13.8-6.7,17.6-13.4c-6.1,3.1-12.9,4.6-19.8,4.2
				c1.7-6.3,0.8-13.1-2.5-18.8c0.8,4.3-0.2,8.6-1.1,12.9c-0.7,2.7-1.4,5.6-3.6,7.3c-4.9,3.5-13.2-0.8-17.3,2.8
				c3.2-0.9,4.8,0.3,7.2,0.9c2.3,0.6,4.7,2.6,4.4,5c-0.4,1.5-1.3,2.9-2.5,3.9c-4.1,3.8-9.2,7.5-14.8,6.7
				C1043.9-275,1050.7-277,1055.7-281.4z"/>
			<path class="st2" d="M849.6-74.3c-2.3,0.2-4.6,0.8-6.7,1.8c-3,1.3-5.8,3.1-8.1,5.5c-6.5,6.5-9.6,15.3-9.3,26.4
				c0,10.6,4.3,20.7,11.8,28.2c7.4,7.5,17.5,11.8,28.1,11.9c11.1,0.4,19.9-2.6,26.2-8.9s8.9-12.7,7.7-19.3c1.8,1.6,4.3,2.3,6.7,2
				c2.3-0.4,5.5-2.5,9.5-6.5c4-4,5.5-7.4,4.7-10.4c-0.5-1.4-1.1-2.6-2-3.8c-1.1-1.4-2.3-2.7-3.6-3.9l-38.2-38.2
				c-1.2-1.3-2.5-2.5-3.9-3.6c-1.2-0.8-2.5-1.5-3.9-1.9c-1.7-0.5-3.6-0.3-5.2,0.6c-2.6,1.6-5,3.5-7,5.7c-5.3,5.3-6.2,10.2-2.5,14.7
				C852.4-74.3,851-74.4,849.6-74.3z M856.6-31.4c-2.4-2.5-3.8-5.8-4-9.3c-0.3-3.8,1.2-7.5,3.9-10.1c2.5-2.7,6.2-4.2,9.9-3.8
				c3.4,0.2,6.7,1.6,9.2,4c2.4,2.5,3.8,5.7,3.8,9.2c0.2,3.6-1.2,7.2-3.8,9.7c-2.6,2.6-6.1,4.1-9.8,4C862.5-27.6,859.1-29,856.6-31.4
				L856.6-31.4z"/>
			<path class="st2" d="M931.8-126c0.8-1.2,1.5-2.4,2-3.8c1-2.9-0.8-6.7-5.4-11.3s-8.4-6.5-11.2-5.6c-1.4,0.4-2.7,1-3.9,1.9
				c-1.4,1.1-2.7,2.3-3.9,3.6c-1.6,1.6-3.9,4.2-6.8,7.7l-10.7-10.7c-1.8-1.9-3.9-3.6-6.1-5c-3.6-1.7-7.9-0.1-12.9,4.8
				c-4.7,4.7-6.6,8.4-5.7,11.1c0.3,1.3,0.8,2.6,1.6,3.7c1.1,1.4,2.3,2.7,3.5,3.9l11.2,11.2l-4.1,3.2c-1.6,1.5-2.7,3.6-2.9,5.8
				c0,1.6,0.5,3.1,1.4,4.4c1.7,2.6,3.7,4.9,5.9,7c3,3,5.7,4.6,7.9,4.8c2.2,0.2,4.3-0.6,5.8-2.2c1.5-1.5,2.9-3.1,4.2-4.8l16.1,16.1
				c8.2,8.1,15.9,11.8,23.3,11.3c7.4-0.5,14.8-4.6,22.4-12.1c1.2-1.2,2.4-2.5,3.5-3.8c0.8-1.2,1.5-2.4,2-3.8c1-3.1-0.8-6.9-5.3-11.5
				c-3.9-3.9-7.2-5.5-9.8-4.8c-1.4,0.4-2.8,1-3.9,1.9c-1.4,1.2-2.8,2.4-4.1,3.8c-1.7,1.7-3.3,2.5-4.8,2.2c-2-0.6-3.9-1.7-5.2-3.3
				l-15.1-15.1l7.5-6.7C929.5-123.3,930.7-124.6,931.8-126z"/>
			<path class="st2" d="M983.7-197.1c-11.9-2.4-22.9,1.5-33,11.6c-8.9,8.9-13.5,19.1-14,30.5c-0.4,11.4,3.9,21.7,13.1,30.9
				c7.1,7.2,16.5,11.8,26.6,12.9c5.8,0.7,11.7-0.2,17.1-2.4c6.5-2.6,12.3-6.6,17.2-11.6c15.5-15.5,20-26.5,13.6-33
				c-1.9-1.7-4.1-2.9-6.4-3.6c-5-1.6-8.6-1.2-10.9,1.1c-1.4,1.6-2.5,3.5-3.2,5.6l-0.8,1.6c-2.2,4.2-5.2,8-8.7,11.2
				c-2.6,2.5-5.8,4.3-9.3,5.1c-3.8,1-6.7,0.5-8.8-1.5l25.9-25.9c2.8-2.8,4.3-6.7,4.2-10.6c0.1-4.4-2.1-8.8-6.6-13.3
				C995.3-192.9,989.7-195.9,983.7-197.1z M966.1-148.4c-2.2-2.2-3-5.4-2.6-9.7c0.1-3.7,1.6-7.2,4.1-9.9c1.8-2.1,4.3-3.4,7-3.9
				c2.2-0.3,4.4,0.5,5.9,2.1c2.3,2.3,2.1,4.9-0.7,7.6L966.1-148.4z"/>
			<path class="st2" d="M1040.2-234.5c0.8-1.2,1.5-2.4,2-3.8c1.1-2.9-0.7-6.7-5.4-11.4c-4.7-4.7-8.4-6.5-11.2-5.6
				c-1.4,0.4-2.7,1-3.9,1.9c-1.4,1.1-2.7,2.3-3.9,3.6c-1.6,1.6-3.9,4.2-6.8,7.7l-10.7-10.7c-1.8-1.9-3.9-3.6-6.1-5
				c-3.6-1.7-7.9-0.1-12.9,4.8c-4.7,4.7-6.6,8.4-5.7,11.1c0.3,1.3,0.8,2.6,1.6,3.7c1.1,1.4,2.3,2.7,3.5,3.9l11.2,11.2l-4.1,3.2
				c-1.6,1.5-2.7,3.6-3,5.8c0,1.6,0.5,3.1,1.4,4.4c1.7,2.6,3.7,4.9,5.9,7c3,3,5.7,4.6,8,4.8c2.2,0.2,4.3-0.6,5.8-2.2
				c1.5-1.5,2.9-3.1,4.2-4.8l16.1,16.1c8.1,8.1,15.8,11.9,23.2,11.4c7.4-0.5,14.8-4.6,22.4-12.1c1.2-1.2,2.4-2.5,3.5-3.8
				c0.8-1.2,1.5-2.4,2-3.8c1-3.1-0.8-6.9-5.3-11.5c-3.9-3.9-7.2-5.5-9.8-4.8c-1.4,0.4-2.8,1-3.9,1.9c-1.4,1.2-2.8,2.4-4.1,3.8
				c-1.7,1.7-3.3,2.5-4.8,2.2c-2-0.6-3.8-1.7-5.2-3.3l-15.1-15.1l7.5-6.7C1037.9-231.7,1039.1-233.1,1040.2-234.5z"/>
		</g>
		<g id="dark_00000135650945162462765530000016265834716942732182_" class="st1">
			<path class="st2" d="M521.2-307.1c1.5-0.8,3.1-1.4,4.7-2c17.3-5.9,37.5,1.6,47.9,16.6c6,8.8,9.5,19.1,10.2,29.7
				c0.4,3,0.3,6.1-0.3,9.1c-1.2,5.5-5,10-8.7,14.4c-4.9,5.9-10.3,11.8-17.4,14.7c-16.4,6.8-39,3.5-54.6-15.1
				c-3.4-4-5.1-12.5-5.3-17.8c-0.4-5.7-0.2-11.4,0.7-17.1"/>
			<path class="st3" d="M531.9-259.8c-1.5-1.5-3.9-1.5-5.5,0s-1.5,3.9,0,5.5s3.9,1.5,5.5,0S533.4-258.2,531.9-259.8z M552.2-266.5
				c-0.2-0.7-0.9-1.1-1.5-1s-1.1,0.9-1,1.5c0,0.2,0.1,0.3,0.1,0.5c0.4,1,1.4,4.3-0.7,6.6c-1.4,1.7-3.8,2.4-5.9,1.6
				c-0.1,0-0.2-0.1-0.3-0.1c-0.7-0.1-1.4,0.3-1.5,1c-0.1,0.7,0.3,1.4,1,1.5c2.9,1,6.1,0.3,8.2-1.9l0.3-0.3c2.1-2.3,2.5-5.3,1.3-9.2
				l0-0.1C552.2-266.4,552.2-266.4,552.2-266.5z M551.9-276.1c1.5-1.5,1.5-3.9,0-5.5s-3.9-1.5-5.5,0s-1.5,3.9,0,5.5
				S550.4-274.6,551.9-276.1L551.9-276.1z"/>
			<path class="st2" d="M505.7-281.4c0.9,4.1,1.7,2.5,0.7,8.9c-0.4,3.7-1.4,7.4-2.9,10.8c5.8-3.3,9.3-12.9,10.2-19.1
				c0.4-2.6,0.6-5.6,2.7-7.1c1.1-0.7,2.3-1.1,3.6-1.3c7.5-1.9,13.8-6.7,17.6-13.4c-6.1,3.1-12.9,4.6-19.8,4.2
				c1.7-6.3,0.8-13.1-2.5-18.8c0.8,4.3-0.2,8.6-1.1,12.9c-0.7,2.7-1.4,5.6-3.6,7.3c-4.9,3.5-13.2-0.8-17.3,2.8
				c3.2-0.9,4.8,0.3,7.2,0.9c2.3,0.6,4.7,2.6,4.4,5c-0.4,1.5-1.3,2.9-2.5,3.9c-4.1,3.8-9.2,7.5-14.8,6.7
				C493.9-275,500.7-277,505.7-281.4z"/>
			<path class="st2" d="M299.6-74.3c-2.3,0.2-4.6,0.8-6.7,1.8c-3,1.3-5.8,3.1-8.1,5.5c-6.5,6.5-9.6,15.3-9.3,26.4
				c0,10.6,4.3,20.7,11.8,28.2c7.4,7.5,17.5,11.8,28.1,11.9c11.1,0.4,19.9-2.6,26.2-8.9c6.3-6.3,8.9-12.7,7.7-19.3
				c1.8,1.6,4.3,2.3,6.7,2c2.3-0.4,5.5-2.5,9.5-6.5c4-4,5.5-7.4,4.7-10.4c-0.5-1.4-1.1-2.6-2-3.8c-1.1-1.4-2.3-2.7-3.6-3.9
				l-38.2-38.2c-1.2-1.3-2.5-2.5-3.9-3.6c-1.2-0.8-2.5-1.5-3.9-1.9c-1.7-0.5-3.6-0.3-5.2,0.6c-2.6,1.6-5,3.5-7,5.7
				c-5.3,5.3-6.2,10.2-2.5,14.7C302.4-74.3,301-74.4,299.6-74.3z M306.6-31.4c-2.4-2.5-3.8-5.8-4-9.3c-0.3-3.8,1.2-7.5,3.9-10.1
				c2.5-2.7,6.2-4.2,9.9-3.8c3.4,0.2,6.7,1.6,9.2,4c2.4,2.5,3.8,5.7,3.8,9.2c0.2,3.6-1.2,7.2-3.8,9.7c-2.6,2.6-6.1,4.1-9.8,4
				C312.5-27.6,309.1-29,306.6-31.4L306.6-31.4z"/>
			<path class="st2" d="M381.8-126c0.8-1.2,1.5-2.4,2-3.8c1-2.9-0.8-6.7-5.4-11.3c-4.6-4.7-8.4-6.5-11.2-5.6c-1.4,0.4-2.7,1-3.9,1.9
				c-1.4,1.1-2.7,2.3-3.9,3.6c-1.6,1.6-3.9,4.2-6.8,7.7l-10.7-10.7c-1.8-1.9-3.9-3.6-6.1-5c-3.6-1.7-7.9-0.1-12.9,4.8
				c-4.7,4.7-6.6,8.4-5.7,11.1c0.3,1.3,0.8,2.6,1.6,3.7c1.1,1.4,2.3,2.7,3.5,3.9l11.2,11.2l-4.1,3.2c-1.6,1.5-2.7,3.6-2.9,5.8
				c0,1.6,0.5,3.1,1.4,4.4c1.7,2.6,3.7,4.9,5.9,7c3,3,5.7,4.6,7.9,4.8c2.2,0.2,4.3-0.6,5.8-2.2c1.5-1.5,2.9-3.1,4.2-4.8l16.1,16.1
				c8.2,8.1,15.9,11.8,23.3,11.3c7.4-0.5,14.8-4.6,22.4-12.1c1.2-1.2,2.4-2.5,3.5-3.8c0.8-1.2,1.5-2.4,2-3.8c1-3.1-0.8-6.9-5.3-11.5
				c-3.9-3.9-7.2-5.5-9.8-4.8c-1.4,0.4-2.8,1-3.9,1.9c-1.4,1.2-2.8,2.4-4.1,3.8c-1.7,1.7-3.3,2.5-4.8,2.2c-2-0.6-3.9-1.7-5.2-3.3
				l-15.1-15.1l7.5-6.7C379.5-123.3,380.7-124.6,381.8-126z"/>
			<path class="st2" d="M433.7-197.1c-11.9-2.4-22.9,1.5-33,11.6c-8.9,8.9-13.5,19.1-14,30.5c-0.4,11.4,3.9,21.7,13.1,30.9
				c7.1,7.2,16.5,11.8,26.6,12.9c5.8,0.7,11.7-0.2,17.1-2.4c6.5-2.6,12.3-6.6,17.2-11.6c15.5-15.5,20-26.5,13.6-33
				c-1.9-1.7-4.1-2.9-6.4-3.6c-5-1.6-8.6-1.2-10.9,1.1c-1.4,1.6-2.5,3.5-3.2,5.6l-0.8,1.6c-2.2,4.2-5.2,8-8.7,11.2
				c-2.6,2.5-5.8,4.3-9.3,5.1c-3.8,1-6.7,0.5-8.8-1.5l25.9-25.9c2.8-2.8,4.3-6.7,4.2-10.6c0.1-4.4-2.1-8.8-6.6-13.3
				C445.3-192.9,439.7-195.9,433.7-197.1z M416.1-148.4c-2.2-2.2-3-5.4-2.6-9.7c0.1-3.7,1.6-7.2,4.1-9.9c1.8-2.1,4.3-3.4,7-3.9
				c2.2-0.3,4.4,0.5,5.9,2.1c2.3,2.3,2.1,4.9-0.7,7.6L416.1-148.4z"/>
			<path class="st2" d="M490.2-234.5c0.8-1.2,1.5-2.4,2-3.8c1.1-2.9-0.7-6.7-5.4-11.4c-4.7-4.7-8.4-6.5-11.2-5.6
				c-1.4,0.4-2.7,1-3.9,1.9c-1.4,1.1-2.7,2.3-3.9,3.6c-1.6,1.6-3.9,4.2-6.8,7.7l-10.7-10.7c-1.8-1.9-3.9-3.6-6.1-5
				c-3.6-1.7-7.9-0.1-12.9,4.8c-4.7,4.7-6.6,8.4-5.7,11.1c0.3,1.3,0.8,2.6,1.6,3.7c1.1,1.4,2.3,2.7,3.5,3.9l11.2,11.2l-4.1,3.2
				c-1.6,1.5-2.7,3.6-3,5.8c0,1.6,0.5,3.1,1.4,4.4c1.7,2.6,3.7,4.9,5.9,7c3,3,5.7,4.6,8,4.8c2.2,0.2,4.3-0.6,5.8-2.2
				c1.5-1.5,2.9-3.1,4.2-4.8l16.1,16.1c8.1,8.1,15.8,11.9,23.2,11.4c7.4-0.5,14.8-4.6,22.4-12.1c1.2-1.2,2.4-2.5,3.5-3.8
				c0.8-1.2,1.5-2.4,2-3.8c1-3.1-0.8-6.9-5.3-11.5c-3.9-3.9-7.2-5.5-9.8-4.8c-1.4,0.4-2.8,1-3.9,1.9c-1.4,1.2-2.8,2.4-4.1,3.8
				c-1.7,1.7-3.3,2.5-4.8,2.2c-2-0.6-3.8-1.7-5.2-3.3l-15.1-15.1l7.5-6.7C487.9-231.7,489.1-233.1,490.2-234.5z"/>
		</g>
		<g id="dark_00000044874978367554293940000000388657747833823617_" class="st1">
			<path class="st2" d="M933.9-403.2c0.9-1.2,1.5-2.4,2-3.8c1.1-2.9-0.7-6.7-5.4-11.4c-4.7-4.7-8.4-6.5-11.2-5.6
				c-1.4,0.4-2.7,1-3.9,1.9c-1.4,1.1-2.7,2.3-3.9,3.6c-1.6,1.6-3.9,4.2-6.8,7.7l-10.7-10.7c-1.8-1.9-3.9-3.6-6.1-5
				c-3.6-1.7-7.9-0.1-12.9,4.8c-4.7,4.7-6.6,8.4-5.7,11.1c0.3,1.3,0.8,2.6,1.6,3.7c1.1,1.4,2.3,2.7,3.5,3.9l11.3,11.3l-4.1,3.2
				c-1.6,1.5-2.7,3.6-3,5.8c0,1.6,0.5,3.1,1.4,4.4c1.7,2.6,3.7,4.9,5.9,7c3,3,5.7,4.6,8,4.8c2.2,0.2,4.3-0.6,5.8-2.2
				c1.5-1.5,2.9-3.1,4.2-4.8l16.1,16.1c8.1,8.1,15.9,11.9,23.2,11.4c7.4-0.5,14.8-4.6,22.4-12.1c1.2-1.2,2.4-2.5,3.5-3.8
				c0.8-1.2,1.5-2.4,2-3.8c1-3.1-0.8-6.9-5.3-11.5c-3.9-3.9-7.2-5.5-9.8-4.8c-1.4,0.4-2.8,1-3.9,1.9c-1.4,1.2-2.8,2.5-4.1,3.8
				c-1.7,1.7-3.3,2.5-4.8,2.2c-2-0.6-3.8-1.7-5.2-3.3l-15.1-15.1l7.5-6.7C931.6-400.4,932.8-401.8,933.9-403.2z"/>
			<path class="st2" d="M953.8-403.7c5.5,5.6,12.6,9.5,20.3,11c7.3,1.5,14.8,1.2,21.9-0.9c6.6-2,12.6-5.6,17.5-10.5
				c4.9-4.9,8.5-10.8,10.6-17.3c2.3-7,2.6-14.6,1.1-21.8c-1.6-7.9-5.6-15.2-11.4-20.8c-8.7-8.7-18.9-12.9-30.6-12.5
				c-11,0.1-21.6,4.6-29.4,12.5c-7.9,7.9-12,17.7-12.5,29.5C941-422.7,945.1-412.4,953.8-403.7z M984.5-418.7
				c-4.1,0.5-7.9-1-11.4-4.5s-5.1-7.3-4.6-11.4c0.3-3.8,1.9-7.3,4.6-10.1c2.7-2.7,6.2-4.3,9.9-4.7c4-0.5,7.8,1,11.4,4.6
				c3.6,3.6,5,7.5,4.4,11.7c-0.4,3.7-1.9,7.2-4.5,9.9C991.6-420.6,988.2-419.1,984.5-418.7L984.5-418.7z"/>
			<path class="st2" d="M1011.2-514.7c-2.5-0.1-5.8,1.9-9.9,6c-4.1,4.1-5.7,7.6-4.8,10.7c0.3,1.4,0.9,2.7,1.7,3.8
				c1.1,1.4,2.3,2.7,3.6,3.9l38.4,38.4c1.3,1.3,2.6,2.5,4,3.7c1.1,0.8,2.4,1.5,3.7,1.9c3,0.9,6.8-0.9,11.4-5.5
				c4.6-4.6,6.5-8.4,5.7-11.4c-0.4-1.4-1-2.7-1.9-3.9c-1.1-1.4-2.3-2.7-3.6-3.9l-19.3-19.3c-6.3-6.3-7.3-11.7-2.9-16.1
				c4.5-4.5,9.9-3.6,16.3,2.7l19.1,19.1c1.2,1.3,2.6,2.5,3.9,3.6c1.2,0.8,2.4,1.5,3.8,2c3,1.1,6.8-0.7,11.5-5.3s6.5-8.5,5.6-11.5
				c-0.4-1.4-1-2.7-1.8-3.9c-1.1-1.4-2.4-2.7-3.7-4l-19.1-19.1c-2.6-2.3-4.5-5.2-5.7-8.5c-0.8-2.6,0.1-5.2,2.7-7.7
				c4.5-4.5,9.9-3.6,16.3,2.7l19.1,19.1c1.2,1.3,2.5,2.5,3.9,3.6c1.2,0.8,2.4,1.5,3.8,2c3,1.1,6.8-0.7,11.5-5.4
				c4.7-4.7,6.5-8.5,5.5-11.4c-0.4-1.4-1-2.8-1.9-3.9c-1.1-1.4-2.3-2.7-3.6-3.9l-19.1-19.1c-10.3-10.3-19.7-15.8-28.1-16.3
				c-8-0.7-15.8,2.2-21.4,7.9c-2.7,2.7-4.6,6.1-5.5,9.8c-0.9,3-1.4,6.2-1.5,9.3c0,2.1,0.2,4.2,0.5,6.3c-10-2.7-18.7-0.3-26.1,7.1
				c-4.8,4.8-6.3,11.5-4.6,20.1C1016.8-513.1,1014.1-514.5,1011.2-514.7z"/>
			<path class="st2" d="M1124.6-624.3c-2.3,0.2-4.6,0.8-6.7,1.8c-3,1.3-5.8,3.1-8.1,5.5c-6.5,6.5-9.6,15.3-9.3,26.4
				c0,10.6,4.3,20.7,11.8,28.2c7.4,7.5,17.5,11.8,28.1,11.9c11.1,0.4,19.9-2.6,26.2-8.9s8.9-12.7,7.7-19.3c1.8,1.6,4.3,2.3,6.7,2
				c2.3-0.4,5.5-2.5,9.5-6.5c4-4,5.5-7.4,4.7-10.4c-0.5-1.4-1.1-2.6-2-3.8c-1.1-1.4-2.3-2.7-3.6-3.9l-38.2-38.2
				c-1.2-1.3-2.5-2.5-3.9-3.6c-1.2-0.8-2.5-1.5-3.9-1.9c-1.7-0.5-3.6-0.3-5.2,0.6c-2.6,1.6-5,3.5-7,5.7c-5.3,5.3-6.2,10.2-2.5,14.7
				C1127.4-624.3,1126-624.4,1124.6-624.3z M1131.6-581.4c-2.4-2.5-3.8-5.8-4-9.3c-0.3-3.8,1.2-7.5,3.9-10.1
				c2.5-2.7,6.2-4.2,9.9-3.8c3.4,0.2,6.7,1.6,9.2,4c2.4,2.5,3.8,5.7,3.8,9.2c0.2,3.6-1.2,7.2-3.8,9.7c-2.6,2.6-6.1,4.1-9.8,4
				C1137.5-577.6,1134.1-579,1131.6-581.4L1131.6-581.4z"/>
		</g>
		<g id="dark_00000152251628433267842280000002093328339007796897_" class="st1">
			<path class="st2" d="M796.2-857.1c1.5-0.8,3.1-1.4,4.7-2c17.3-5.9,37.5,1.6,47.9,16.6c6,8.8,9.5,19.1,10.2,29.7
				c0.4,3,0.3,6.1-0.3,9.1c-1.2,5.5-5,10-8.7,14.4c-4.9,5.9-10.3,11.8-17.4,14.7c-16.4,6.8-39,3.5-54.6-15.1
				c-3.4-4-5.1-12.5-5.3-17.8c-0.4-5.7-0.2-11.4,0.7-17.1"/>
			<path class="st3" d="M806.9-809.8c-1.5-1.5-3.9-1.5-5.5,0s-1.5,3.9,0,5.5s3.9,1.5,5.5,0S808.4-808.2,806.9-809.8z M827.2-816.5
				c-0.2-0.7-0.9-1.1-1.5-1c-0.7,0.2-1.1,0.9-1,1.5c0,0.2,0.1,0.3,0.1,0.5c0.4,1,1.4,4.3-0.7,6.6c-1.4,1.7-3.8,2.4-5.9,1.6
				c-0.1,0-0.2-0.1-0.3-0.1c-0.7-0.1-1.4,0.3-1.5,1c-0.1,0.7,0.3,1.4,1,1.5c2.9,1,6.1,0.3,8.2-1.9l0.3-0.3c2.1-2.3,2.5-5.3,1.3-9.2
				l0-0.1C827.2-816.4,827.2-816.4,827.2-816.5z M826.9-826.1c1.5-1.5,1.5-3.9,0-5.5s-3.9-1.5-5.5,0s-1.5,3.9,0,5.5
				S825.4-824.6,826.9-826.1L826.9-826.1z"/>
			<path class="st2" d="M780.7-831.4c0.9,4.1,1.7,2.5,0.7,8.9c-0.4,3.7-1.4,7.4-2.9,10.8c5.8-3.3,9.3-12.9,10.2-19.1
				c0.4-2.6,0.6-5.6,2.7-7.1c1.1-0.7,2.3-1.1,3.6-1.3c7.5-1.9,13.8-6.7,17.6-13.4c-6.1,3.1-12.9,4.6-19.8,4.2
				c1.7-6.3,0.8-13.1-2.5-18.8c0.8,4.3-0.2,8.6-1.1,12.9c-0.7,2.7-1.4,5.6-3.6,7.3c-4.9,3.5-13.2-0.8-17.3,2.8
				c3.2-0.9,4.8,0.3,7.2,0.9s4.7,2.6,4.4,5c-0.4,1.5-1.3,2.9-2.5,3.9c-4.1,3.8-9.2,7.5-14.8,6.7C768.9-825,775.7-827,780.7-831.4z"
				/>
			<path class="st2" d="M383.9-403.2c0.9-1.2,1.5-2.4,2-3.8c1.1-2.9-0.7-6.7-5.4-11.4c-4.7-4.7-8.4-6.5-11.2-5.6
				c-1.4,0.4-2.7,1-3.9,1.9c-1.4,1.1-2.7,2.3-3.9,3.6c-1.6,1.6-3.9,4.2-6.8,7.7l-10.7-10.7c-1.8-1.9-3.9-3.6-6.1-5
				c-3.6-1.7-7.9-0.1-12.9,4.8c-4.7,4.7-6.6,8.4-5.7,11.1c0.3,1.3,0.8,2.6,1.6,3.7c1.1,1.4,2.3,2.7,3.5,3.9l11.3,11.3l-4.1,3.2
				c-1.6,1.5-2.7,3.6-3,5.8c0,1.6,0.5,3.1,1.4,4.4c1.7,2.6,3.7,4.9,5.9,7c3,3,5.7,4.6,8,4.8c2.2,0.2,4.3-0.6,5.8-2.2
				c1.5-1.5,2.9-3.1,4.2-4.8l16.1,16.1c8.1,8.1,15.9,11.9,23.2,11.4c7.4-0.5,14.8-4.6,22.4-12.1c1.2-1.2,2.4-2.5,3.5-3.8
				c0.8-1.2,1.5-2.4,2-3.8c1-3.1-0.8-6.9-5.3-11.5c-3.9-3.9-7.2-5.5-9.8-4.8c-1.4,0.4-2.8,1-3.9,1.9c-1.4,1.2-2.8,2.5-4.1,3.8
				c-1.7,1.7-3.3,2.5-4.8,2.2c-2-0.6-3.8-1.7-5.2-3.3l-15.1-15.1l7.5-6.7C381.6-400.4,382.8-401.8,383.9-403.2z"/>
			<path class="st2" d="M403.8-403.7c5.5,5.6,12.6,9.5,20.3,11c7.3,1.5,14.8,1.2,21.9-0.9c6.6-2,12.6-5.6,17.5-10.5
				c4.9-4.9,8.5-10.8,10.6-17.3c2.3-7,2.6-14.6,1.1-21.8c-1.6-7.9-5.6-15.2-11.4-20.8c-8.7-8.7-18.9-12.9-30.6-12.5
				c-11,0.1-21.6,4.6-29.4,12.5c-7.9,7.9-12,17.7-12.5,29.5C391-422.7,395.1-412.4,403.8-403.7z M434.5-418.7
				c-4.1,0.5-7.9-1-11.4-4.5s-5.1-7.3-4.6-11.4c0.3-3.8,1.9-7.3,4.6-10.1c2.7-2.7,6.2-4.3,9.9-4.7c4-0.5,7.8,1,11.4,4.6
				c3.6,3.6,5,7.5,4.4,11.7c-0.4,3.7-1.9,7.2-4.5,9.9C441.6-420.6,438.2-419.1,434.5-418.7L434.5-418.7z"/>
			<path class="st2" d="M461.2-514.7c-2.5-0.1-5.8,1.9-9.9,6s-5.7,7.6-4.8,10.7c0.3,1.4,0.9,2.7,1.7,3.8c1.1,1.4,2.3,2.7,3.6,3.9
				l38.4,38.4c1.3,1.3,2.6,2.5,4,3.7c1.1,0.8,2.4,1.5,3.7,1.9c3,0.9,6.8-0.9,11.4-5.5c4.6-4.6,6.5-8.4,5.7-11.4
				c-0.4-1.4-1-2.7-1.9-3.9c-1.1-1.4-2.3-2.7-3.6-3.9l-19.3-19.3c-6.3-6.3-7.3-11.7-2.9-16.1c4.5-4.5,9.9-3.6,16.3,2.7l19.1,19.1
				c1.2,1.3,2.6,2.5,3.9,3.6c1.2,0.8,2.4,1.5,3.8,2c3,1.1,6.8-0.7,11.5-5.3s6.5-8.5,5.6-11.5c-0.4-1.4-1-2.7-1.8-3.9
				c-1.1-1.4-2.4-2.7-3.7-4l-19.1-19.1c-2.6-2.3-4.5-5.2-5.7-8.5c-0.8-2.6,0.1-5.2,2.7-7.7c4.5-4.5,9.9-3.6,16.3,2.7l19.1,19.1
				c1.2,1.3,2.5,2.5,3.9,3.6c1.2,0.8,2.4,1.5,3.8,2c3,1.1,6.8-0.7,11.5-5.4c4.7-4.7,6.5-8.5,5.5-11.4c-0.4-1.4-1-2.8-1.9-3.9
				c-1.1-1.4-2.3-2.7-3.6-3.9l-19.1-19.1c-10.3-10.3-19.7-15.8-28.1-16.3c-8-0.7-15.8,2.2-21.4,7.9c-2.7,2.7-4.6,6.1-5.5,9.8
				c-0.9,3-1.4,6.2-1.5,9.3c0,2.1,0.2,4.2,0.5,6.3c-10-2.7-18.7-0.3-26.1,7.1c-4.8,4.8-6.3,11.5-4.6,20.1
				C466.8-513.1,464.1-514.5,461.2-514.7z"/>
			<path class="st2" d="M574.6-624.3c-2.3,0.2-4.6,0.8-6.7,1.8c-3,1.3-5.8,3.1-8.1,5.5c-6.5,6.5-9.6,15.3-9.3,26.4
				c0,10.6,4.3,20.7,11.8,28.2c7.4,7.5,17.5,11.8,28.1,11.9c11.1,0.4,19.9-2.6,26.2-8.9s8.9-12.7,7.7-19.3c1.8,1.6,4.3,2.3,6.7,2
				c2.3-0.4,5.5-2.5,9.5-6.5c4-4,5.5-7.4,4.7-10.4c-0.5-1.4-1.1-2.6-2-3.8c-1.1-1.4-2.3-2.7-3.6-3.9l-38.2-38.2
				c-1.2-1.3-2.5-2.5-3.9-3.6c-1.2-0.8-2.5-1.5-3.9-1.9c-1.7-0.5-3.6-0.3-5.2,0.6c-2.6,1.6-5,3.5-7,5.7c-5.3,5.3-6.2,10.2-2.5,14.7
				C577.4-624.3,576-624.4,574.6-624.3z M581.6-581.4c-2.4-2.5-3.8-5.8-4-9.3c-0.3-3.8,1.2-7.5,3.9-10.1c2.5-2.7,6.2-4.2,9.9-3.8
				c3.4,0.2,6.7,1.6,9.2,4c2.4,2.5,3.8,5.7,3.8,9.2c0.2,3.6-1.2,7.2-3.8,9.7c-2.6,2.6-6.1,4.1-9.8,4
				C587.5-577.6,584.1-579,581.6-581.4L581.6-581.4z"/>
			<path class="st2" d="M656.8-676c0.8-1.2,1.5-2.4,2-3.8c1-2.9-0.8-6.7-5.4-11.3s-8.4-6.5-11.2-5.6c-1.4,0.4-2.7,1-3.9,1.9
				c-1.4,1.1-2.7,2.3-3.9,3.6c-1.6,1.6-3.9,4.2-6.8,7.7l-10.7-10.7c-1.8-1.9-3.9-3.6-6.1-5c-3.6-1.7-7.9-0.1-12.9,4.8
				c-4.7,4.7-6.6,8.4-5.7,11.1c0.3,1.3,0.8,2.6,1.6,3.7c1.1,1.4,2.3,2.7,3.5,3.9l11.2,11.2l-4.1,3.2c-1.6,1.5-2.7,3.6-2.9,5.8
				c0,1.6,0.5,3.1,1.4,4.4c1.7,2.6,3.7,4.9,5.9,7c3,3,5.7,4.6,7.9,4.8c2.2,0.2,4.3-0.6,5.8-2.2c1.5-1.5,2.9-3.1,4.2-4.8l16.1,16.1
				c8.2,8.1,15.9,11.8,23.3,11.3c7.4-0.5,14.8-4.6,22.4-12.1c1.2-1.2,2.4-2.5,3.5-3.8c0.8-1.2,1.5-2.4,2-3.8c1-3.1-0.8-6.9-5.3-11.5
				c-3.9-3.9-7.2-5.5-9.8-4.8c-1.4,0.4-2.8,1-3.9,1.9c-1.4,1.2-2.8,2.4-4.1,3.8c-1.7,1.7-3.3,2.5-4.8,2.2c-2-0.6-3.9-1.7-5.2-3.3
				l-15.1-15.1l7.5-6.7C654.5-673.3,655.7-674.6,656.8-676z"/>
			<path class="st2" d="M708.7-747.1c-11.9-2.4-22.9,1.5-33,11.6c-8.9,8.9-13.5,19.1-14,30.5s3.9,21.7,13.1,30.9
				c7.1,7.2,16.5,11.8,26.6,12.9c5.8,0.7,11.7-0.2,17.1-2.4c6.5-2.6,12.3-6.6,17.2-11.6c15.5-15.5,20-26.5,13.6-33
				c-1.9-1.7-4.1-2.9-6.4-3.6c-5-1.6-8.6-1.2-10.9,1.1c-1.4,1.6-2.5,3.5-3.2,5.6l-0.8,1.6c-2.2,4.2-5.2,8-8.7,11.2
				c-2.6,2.5-5.8,4.3-9.3,5.1c-3.8,1-6.7,0.5-8.8-1.5l25.9-25.9c2.8-2.8,4.3-6.7,4.2-10.6c0.1-4.4-2.1-8.8-6.6-13.3
				C720.3-742.9,714.7-745.9,708.7-747.1z M691.1-698.4c-2.2-2.2-3-5.4-2.6-9.7c0.1-3.7,1.6-7.2,4.1-9.9c1.8-2.1,4.3-3.4,7-3.9
				c2.2-0.3,4.4,0.5,5.9,2.1c2.3,2.3,2.1,4.9-0.7,7.6L691.1-698.4z"/>
			<path class="st2" d="M765.2-784.5c0.8-1.2,1.5-2.4,2-3.8c1.1-2.9-0.7-6.7-5.4-11.4c-4.7-4.7-8.4-6.5-11.2-5.6
				c-1.4,0.4-2.7,1-3.9,1.9c-1.4,1.1-2.7,2.3-3.9,3.6c-1.6,1.6-3.9,4.2-6.8,7.7l-10.7-10.7c-1.8-1.9-3.9-3.6-6.1-5
				c-3.6-1.7-7.9-0.1-12.9,4.8c-4.7,4.7-6.6,8.4-5.7,11.1c0.3,1.3,0.8,2.6,1.6,3.7c1.1,1.4,2.3,2.7,3.5,3.9l11.2,11.2l-4.1,3.2
				c-1.6,1.5-2.7,3.6-3,5.8c0,1.6,0.5,3.1,1.4,4.4c1.7,2.6,3.7,4.9,5.9,7c3,3,5.7,4.6,8,4.8c2.2,0.2,4.3-0.6,5.8-2.2
				c1.5-1.5,2.9-3.1,4.2-4.8l16.1,16.1c8.1,8.1,15.8,11.9,23.2,11.4c7.4-0.5,14.8-4.6,22.4-12.1c1.2-1.2,2.4-2.5,3.5-3.8
				c0.8-1.2,1.5-2.4,2-3.8c1-3.1-0.8-6.9-5.3-11.5c-3.9-3.9-7.2-5.5-9.8-4.8c-1.4,0.4-2.8,1-3.9,1.9c-1.4,1.2-2.8,2.4-4.1,3.8
				c-1.7,1.7-3.3,2.5-4.8,2.2c-2-0.6-3.8-1.7-5.2-3.3l-15.1-15.1l7.5-6.7C762.9-781.7,764.1-783.1,765.2-784.5z"/>
		</g>
		<g id="dark_00000176763455912270230770000009861082266507200146_" class="st1">
			<path class="st2" d="M246.2-857.1c1.5-0.8,3.1-1.4,4.7-2c17.3-5.9,37.5,1.6,47.9,16.6c6,8.8,9.5,19.1,10.2,29.7
				c0.4,3,0.3,6.1-0.3,9.1c-1.2,5.5-5,10-8.7,14.4c-4.9,5.9-10.3,11.8-17.4,14.7c-16.4,6.8-39,3.5-54.6-15.1
				c-3.4-4-5.1-12.5-5.3-17.8c-0.4-5.7-0.2-11.4,0.7-17.1"/>
			<path class="st3" d="M256.9-809.8c-1.5-1.5-3.9-1.5-5.5,0c-1.5,1.5-1.5,3.9,0,5.5c1.5,1.5,3.9,1.5,5.5,0
				C258.4-805.8,258.4-808.2,256.9-809.8z M277.2-816.5c-0.2-0.7-0.9-1.1-1.5-1c-0.7,0.2-1.1,0.9-1,1.5c0,0.2,0.1,0.3,0.1,0.5
				c0.4,1,1.4,4.3-0.7,6.6c-1.4,1.7-3.8,2.4-5.9,1.6c-0.1,0-0.2-0.1-0.3-0.1c-0.7-0.1-1.4,0.3-1.5,1c-0.1,0.7,0.3,1.4,1,1.5
				c2.9,1,6.1,0.3,8.2-1.9l0.3-0.3c2.1-2.3,2.5-5.3,1.3-9.2l0-0.1C277.2-816.4,277.2-816.4,277.2-816.5z M276.9-826.1
				c1.5-1.5,1.5-3.9,0-5.5s-3.9-1.5-5.5,0s-1.5,3.9,0,5.5S275.4-824.6,276.9-826.1L276.9-826.1z"/>
			<path class="st2" d="M230.7-831.4c0.9,4.1,1.7,2.5,0.7,8.9c-0.4,3.7-1.4,7.4-2.9,10.8c5.8-3.3,9.3-12.9,10.2-19.1
				c0.4-2.6,0.6-5.6,2.7-7.1c1.1-0.7,2.3-1.1,3.6-1.3c7.5-1.9,13.8-6.7,17.6-13.4c-6.1,3.1-12.9,4.6-19.8,4.2
				c1.7-6.3,0.8-13.1-2.5-18.8c0.8,4.3-0.2,8.6-1.1,12.9c-0.7,2.7-1.4,5.6-3.6,7.3c-4.9,3.5-13.2-0.8-17.3,2.8
				c3.2-0.9,4.8,0.3,7.2,0.9s4.7,2.6,4.4,5c-0.4,1.5-1.3,2.9-2.5,3.9c-4.1,3.8-9.2,7.5-14.8,6.7C218.9-825,225.7-827,230.7-831.4z"
				/>
			<path class="st2" d="M24.6-624.3c-2.3,0.2-4.6,0.8-6.7,1.8c-3,1.3-5.8,3.1-8.1,5.5c-6.5,6.5-9.6,15.3-9.3,26.4
				c0,10.6,4.3,20.7,11.8,28.2c7.4,7.5,17.5,11.8,28.1,11.9c11.1,0.4,19.9-2.6,26.2-8.9s8.9-12.7,7.7-19.3c1.8,1.6,4.3,2.3,6.7,2
				c2.3-0.4,5.5-2.5,9.5-6.5c4-4,5.5-7.4,4.7-10.4c-0.5-1.4-1.1-2.6-2-3.8c-1.1-1.4-2.3-2.7-3.6-3.9l-38.2-38.2
				c-1.2-1.3-2.5-2.5-3.9-3.6c-1.2-0.8-2.5-1.5-3.9-1.9c-1.7-0.5-3.6-0.3-5.2,0.6c-2.6,1.6-5,3.5-7,5.7c-5.3,5.3-6.2,10.2-2.5,14.7
				C27.4-624.3,26-624.4,24.6-624.3z M31.6-581.4c-2.4-2.5-3.8-5.8-4-9.3c-0.3-3.8,1.2-7.5,3.9-10.1c2.5-2.7,6.2-4.2,9.9-3.8
				c3.4,0.2,6.7,1.6,9.2,4c2.4,2.5,3.8,5.7,3.8,9.2c0.2,3.6-1.2,7.2-3.8,9.7c-2.6,2.6-6.1,4.1-9.8,4C37.5-577.6,34.1-579,31.6-581.4
				L31.6-581.4z"/>
			<path class="st2" d="M106.8-676c0.8-1.2,1.5-2.4,2-3.8c1-2.9-0.8-6.7-5.4-11.3c-4.6-4.7-8.4-6.5-11.2-5.6c-1.4,0.4-2.7,1-3.9,1.9
				c-1.4,1.1-2.7,2.3-3.9,3.6c-1.6,1.6-3.9,4.2-6.8,7.7l-10.7-10.7c-1.8-1.9-3.9-3.6-6.1-5c-3.6-1.7-7.9-0.1-12.9,4.8
				c-4.7,4.7-6.6,8.4-5.7,11.1c0.3,1.3,0.8,2.6,1.6,3.7c1.1,1.4,2.3,2.7,3.5,3.9l11.2,11.2l-4.1,3.2c-1.6,1.5-2.7,3.6-2.9,5.8
				c0,1.6,0.5,3.1,1.4,4.4c1.7,2.6,3.7,4.9,5.9,7c3,3,5.7,4.6,7.9,4.8c2.2,0.2,4.3-0.6,5.8-2.2c1.5-1.5,2.9-3.1,4.2-4.8l16.1,16.1
				c8.2,8.1,15.9,11.8,23.3,11.3c7.4-0.5,14.8-4.6,22.4-12.1c1.2-1.2,2.4-2.5,3.5-3.8c0.8-1.2,1.5-2.4,2-3.8c1-3.1-0.8-6.9-5.3-11.5
				c-3.9-3.9-7.2-5.5-9.8-4.8c-1.4,0.4-2.8,1-3.9,1.9c-1.4,1.2-2.8,2.4-4.1,3.8c-1.7,1.7-3.3,2.5-4.8,2.2c-2-0.6-3.9-1.7-5.2-3.3
				l-15.1-15.1l7.5-6.7C104.5-673.3,105.7-674.6,106.8-676z"/>
			<path class="st2" d="M158.7-747.1c-11.9-2.4-22.9,1.5-33,11.6c-8.9,8.9-13.5,19.1-14,30.5c-0.4,11.4,3.9,21.7,13.1,30.9
				c7.1,7.2,16.5,11.8,26.6,12.9c5.8,0.7,11.7-0.2,17.1-2.4c6.5-2.6,12.3-6.6,17.2-11.6c15.5-15.5,20-26.5,13.6-33
				c-1.9-1.7-4.1-2.9-6.4-3.6c-5-1.6-8.6-1.2-10.9,1.1c-1.4,1.6-2.5,3.5-3.2,5.6l-0.8,1.6c-2.2,4.2-5.2,8-8.7,11.2
				c-2.6,2.5-5.8,4.3-9.3,5.1c-3.8,1-6.7,0.5-8.8-1.5l25.9-25.9c2.8-2.8,4.3-6.7,4.2-10.6c0.1-4.4-2.1-8.8-6.6-13.3
				C170.3-742.9,164.7-745.9,158.7-747.1z M141.1-698.4c-2.2-2.2-3-5.4-2.6-9.7c0.1-3.7,1.6-7.2,4.1-9.9c1.8-2.1,4.3-3.4,7-3.9
				c2.2-0.3,4.4,0.5,5.9,2.1c2.3,2.3,2.1,4.9-0.7,7.6L141.1-698.4z"/>
			<path class="st2" d="M215.2-784.5c0.8-1.2,1.5-2.4,2-3.8c1.1-2.9-0.7-6.7-5.4-11.4c-4.7-4.7-8.4-6.5-11.2-5.6
				c-1.4,0.4-2.7,1-3.9,1.9c-1.4,1.1-2.7,2.3-3.9,3.6c-1.6,1.6-3.9,4.2-6.8,7.7l-10.7-10.7c-1.8-1.9-3.9-3.6-6.1-5
				c-3.6-1.7-7.9-0.1-12.9,4.8c-4.7,4.7-6.6,8.4-5.7,11.1c0.3,1.3,0.8,2.6,1.6,3.7c1.1,1.4,2.3,2.7,3.5,3.9l11.2,11.2l-4.1,3.2
				c-1.6,1.5-2.7,3.6-3,5.8c0,1.6,0.5,3.1,1.4,4.4c1.7,2.6,3.7,4.9,5.9,7c3,3,5.7,4.6,8,4.8c2.2,0.2,4.3-0.6,5.8-2.2
				c1.5-1.5,2.9-3.1,4.2-4.8l16.1,16.1c8.1,8.1,15.8,11.9,23.2,11.4c7.4-0.5,14.8-4.6,22.4-12.1c1.2-1.2,2.4-2.5,3.5-3.8
				c0.8-1.2,1.5-2.4,2-3.8c1-3.1-0.8-6.9-5.3-11.5c-3.9-3.9-7.2-5.5-9.8-4.8c-1.4,0.4-2.8,1-3.9,1.9c-1.4,1.2-2.8,2.4-4.1,3.8
				c-1.7,1.7-3.3,2.5-4.8,2.2c-2-0.6-3.8-1.7-5.2-3.3l-15.1-15.1l7.5-6.7C212.9-781.7,214.1-783.1,215.2-784.5z"/>
		</g>
		<g id="dark_00000152240761581024563190000013042206489973384105_" class="st1">
			<path class="st2" d="M658.9-953.2c0.9-1.2,1.5-2.4,2-3.8c1.1-2.9-0.7-6.7-5.4-11.4s-8.4-6.5-11.2-5.6c-1.4,0.4-2.7,1-3.9,1.9
				c-1.4,1.1-2.7,2.3-3.9,3.6c-1.6,1.6-3.9,4.2-6.8,7.7l-10.7-10.7c-1.8-1.9-3.9-3.6-6.1-5c-3.6-1.7-7.9-0.1-12.9,4.8
				c-4.7,4.7-6.6,8.4-5.7,11.1c0.3,1.3,0.8,2.6,1.6,3.7c1.1,1.4,2.3,2.7,3.5,3.9l11.3,11.3l-4.1,3.2c-1.6,1.5-2.7,3.6-3,5.8
				c0,1.6,0.5,3.1,1.4,4.4c1.7,2.6,3.7,4.9,5.9,7c3,3,5.7,4.6,8,4.8c2.2,0.2,4.3-0.6,5.8-2.2c1.5-1.5,2.9-3.1,4.2-4.8l16.1,16.1
				c8.1,8.1,15.9,11.9,23.2,11.4c7.4-0.5,14.8-4.6,22.4-12.1c1.2-1.2,2.4-2.5,3.5-3.8c0.8-1.2,1.5-2.4,2-3.8c1-3.1-0.8-6.9-5.3-11.5
				c-3.9-3.9-7.2-5.5-9.8-4.8c-1.4,0.4-2.8,1-3.9,1.9c-1.4,1.2-2.8,2.5-4.1,3.8c-1.7,1.7-3.3,2.5-4.8,2.2c-2-0.6-3.8-1.7-5.2-3.3
				l-15.1-15.1l7.5-6.7C656.6-950.4,657.8-951.8,658.9-953.2z"/>
			<path class="st2" d="M678.8-953.7c5.5,5.6,12.6,9.5,20.3,11c7.3,1.5,14.8,1.2,21.9-0.9c6.6-2,12.6-5.6,17.5-10.5
				c4.9-4.9,8.5-10.8,10.6-17.3c2.3-7,2.6-14.6,1.1-21.8c-1.6-7.9-5.6-15.2-11.4-20.8c-8.7-8.7-18.9-12.9-30.6-12.5
				c-11,0.1-21.6,4.6-29.4,12.5c-7.9,7.9-12,17.7-12.5,29.5C666-972.7,670.1-962.4,678.8-953.7z M709.5-968.7
				c-4.1,0.5-7.9-1-11.4-4.5c-3.5-3.5-5.1-7.3-4.6-11.4c0.3-3.8,1.9-7.3,4.6-10.1c2.7-2.7,6.2-4.3,9.9-4.7c4-0.5,7.8,1,11.4,4.6
				c3.6,3.6,5,7.5,4.4,11.7c-0.4,3.7-1.9,7.2-4.5,9.9C716.6-970.6,713.2-969.1,709.5-968.7L709.5-968.7z"/>
			<path class="st2" d="M736.2-1064.7c-2.5-0.1-5.8,1.9-9.9,6c-4.1,4.1-5.7,7.6-4.8,10.7c0.3,1.4,0.9,2.7,1.7,3.8
				c1.1,1.4,2.3,2.7,3.6,3.9l38.4,38.4c1.3,1.3,2.6,2.5,4,3.7c1.1,0.8,2.4,1.5,3.7,1.9c3,0.9,6.8-0.9,11.4-5.5
				c4.6-4.6,6.5-8.4,5.7-11.4c-0.4-1.4-1-2.7-1.9-3.9c-1.1-1.4-2.3-2.7-3.6-3.9l-19.3-19.3c-6.3-6.3-7.3-11.7-2.9-16.1
				c4.5-4.5,9.9-3.6,16.3,2.7l19.1,19.1c1.2,1.3,2.6,2.5,3.9,3.6c1.2,0.8,2.4,1.5,3.8,2c3,1.1,6.8-0.7,11.5-5.3s6.5-8.5,5.6-11.5
				c-0.4-1.4-1-2.7-1.8-3.9c-1.1-1.4-2.4-2.7-3.7-4l-19.1-19.1c-2.6-2.3-4.5-5.2-5.7-8.5c-0.8-2.6,0.1-5.2,2.7-7.7
				c4.5-4.5,9.9-3.6,16.3,2.7l19.1,19.1c1.2,1.3,2.5,2.5,3.9,3.6c1.2,0.8,2.4,1.5,3.8,2c3,1.1,6.8-0.7,11.5-5.4
				c4.7-4.7,6.5-8.5,5.5-11.4c-0.4-1.4-1-2.8-1.9-3.9c-1.1-1.4-2.3-2.7-3.6-3.9l-19.1-19.1c-10.3-10.3-19.7-15.8-28.1-16.3
				c-8-0.7-15.8,2.2-21.4,7.9c-2.7,2.7-4.6,6.1-5.5,9.8c-0.9,3-1.4,6.2-1.5,9.3c0,2.1,0.2,4.2,0.5,6.3c-10-2.7-18.7-0.3-26.1,7.1
				c-4.8,4.8-6.3,11.5-4.6,20.1C741.8-1063.1,739.1-1064.5,736.2-1064.7z"/>
			<path class="st2" d="M849.6-1174.3c-2.3,0.2-4.6,0.8-6.7,1.8c-3,1.3-5.8,3.1-8.1,5.5c-6.5,6.5-9.6,15.3-9.3,26.4
				c0,10.6,4.3,20.7,11.8,28.2c7.4,7.5,17.5,11.8,28.1,11.9c11.1,0.4,19.9-2.6,26.2-8.9s8.9-12.7,7.7-19.3c1.8,1.6,4.3,2.3,6.7,2
				c2.3-0.4,5.5-2.5,9.5-6.5c4-4,5.5-7.4,4.7-10.4c-0.5-1.4-1.1-2.6-2-3.8c-1.1-1.4-2.3-2.7-3.6-3.9l-38.2-38.2
				c-1.2-1.3-2.5-2.5-3.9-3.6c-1.2-0.8-2.5-1.5-3.9-1.9c-1.7-0.5-3.6-0.3-5.2,0.6c-2.6,1.6-5,3.5-7,5.7c-5.3,5.3-6.2,10.2-2.5,14.7
				C852.4-1174.3,851-1174.4,849.6-1174.3z M856.6-1131.4c-2.4-2.5-3.8-5.8-4-9.3c-0.3-3.8,1.2-7.5,3.9-10.1
				c2.5-2.7,6.2-4.2,9.9-3.8c3.4,0.2,6.7,1.6,9.2,4c2.4,2.5,3.8,5.7,3.8,9.2c0.2,3.6-1.2,7.2-3.8,9.7c-2.6,2.6-6.1,4.1-9.8,4
				C862.5-1127.6,859.1-1129,856.6-1131.4L856.6-1131.4z"/>
		</g>
		<g id="dark_00000119109037391637225500000015820875832966356880_" class="st1">
			<path class="st2" d="M108.9-953.2c0.9-1.2,1.5-2.4,2-3.8c1.1-2.9-0.7-6.7-5.4-11.4s-8.4-6.5-11.2-5.6c-1.4,0.4-2.7,1-3.9,1.9
				c-1.4,1.1-2.7,2.3-3.9,3.6c-1.6,1.6-3.9,4.2-6.8,7.7l-10.7-10.7c-1.8-1.9-3.9-3.6-6.1-5c-3.6-1.7-7.9-0.1-12.9,4.8
				c-4.7,4.7-6.6,8.4-5.7,11.1c0.3,1.3,0.8,2.6,1.6,3.7c1.1,1.4,2.3,2.7,3.5,3.9l11.3,11.3l-4.1,3.2c-1.6,1.5-2.7,3.6-3,5.8
				c0,1.6,0.5,3.1,1.4,4.4c1.7,2.6,3.7,4.9,5.9,7c3,3,5.7,4.6,8,4.8c2.2,0.2,4.3-0.6,5.8-2.2c1.5-1.5,2.9-3.1,4.2-4.8l16.1,16.1
				c8.1,8.1,15.9,11.9,23.2,11.4c7.4-0.5,14.8-4.6,22.4-12.1c1.2-1.2,2.4-2.5,3.5-3.8c0.8-1.2,1.5-2.4,2-3.8c1-3.1-0.8-6.9-5.3-11.5
				c-3.9-3.9-7.2-5.5-9.8-4.8c-1.4,0.4-2.8,1-3.9,1.9c-1.4,1.2-2.8,2.5-4.1,3.8c-1.7,1.7-3.3,2.5-4.8,2.2c-2-0.6-3.8-1.7-5.2-3.3
				l-15.1-15.1l7.5-6.7C106.6-950.4,107.8-951.8,108.9-953.2z"/>
			<path class="st2" d="M128.8-953.7c5.5,5.6,12.6,9.5,20.3,11c7.3,1.5,14.8,1.2,21.9-0.9c6.6-2,12.6-5.6,17.5-10.5
				c4.9-4.9,8.5-10.8,10.6-17.3c2.3-7,2.6-14.6,1.1-21.8c-1.6-7.9-5.6-15.2-11.4-20.8c-8.7-8.7-18.9-12.9-30.6-12.5
				c-11,0.1-21.6,4.6-29.4,12.5c-7.9,7.9-12,17.7-12.5,29.5C116-972.7,120.1-962.4,128.8-953.7z M159.5-968.7
				c-4.1,0.5-7.9-1-11.4-4.5c-3.5-3.5-5.1-7.3-4.6-11.4c0.3-3.8,1.9-7.3,4.6-10.1c2.7-2.7,6.2-4.3,9.9-4.7c4-0.5,7.8,1,11.4,4.6
				c3.6,3.6,5,7.5,4.4,11.7c-0.4,3.7-1.9,7.2-4.5,9.9C166.6-970.6,163.2-969.1,159.5-968.7L159.5-968.7z"/>
			<path class="st2" d="M186.2-1064.7c-2.5-0.1-5.8,1.9-9.9,6c-4.1,4.1-5.7,7.6-4.8,10.7c0.3,1.4,0.9,2.7,1.7,3.8
				c1.1,1.4,2.3,2.7,3.6,3.9l38.4,38.4c1.3,1.3,2.6,2.5,4,3.7c1.1,0.8,2.4,1.5,3.7,1.9c3,0.9,6.8-0.9,11.4-5.5
				c4.6-4.6,6.5-8.4,5.7-11.4c-0.4-1.4-1-2.7-1.9-3.9c-1.1-1.4-2.3-2.7-3.6-3.9l-19.3-19.3c-6.3-6.3-7.3-11.7-2.9-16.1
				c4.5-4.5,9.9-3.6,16.3,2.7l19.1,19.1c1.2,1.3,2.6,2.5,3.9,3.6c1.2,0.8,2.4,1.5,3.8,2c3,1.1,6.8-0.7,11.5-5.3s6.5-8.5,5.6-11.5
				c-0.4-1.4-1-2.7-1.8-3.9c-1.1-1.4-2.4-2.7-3.7-4l-19.1-19.1c-2.6-2.3-4.5-5.2-5.7-8.5c-0.8-2.6,0.1-5.2,2.7-7.7
				c4.5-4.5,9.9-3.6,16.3,2.7l19.1,19.1c1.2,1.3,2.5,2.5,3.9,3.6c1.2,0.8,2.4,1.5,3.8,2c3,1.1,6.8-0.7,11.5-5.4
				c4.7-4.7,6.5-8.5,5.5-11.4c-0.4-1.4-1-2.8-1.9-3.9c-1.1-1.4-2.3-2.7-3.6-3.9l-19.1-19.1c-10.3-10.3-19.7-15.8-28.1-16.3
				c-8-0.7-15.8,2.2-21.4,7.9c-2.7,2.7-4.6,6.1-5.5,9.8c-0.9,3-1.4,6.2-1.5,9.3c0,2.1,0.2,4.2,0.5,6.3c-10-2.7-18.7-0.3-26.1,7.1
				c-4.8,4.8-6.3,11.5-4.6,20.1C191.8-1063.1,189.1-1064.5,186.2-1064.7z"/>
			<path class="st2" d="M299.6-1174.3c-2.3,0.2-4.6,0.8-6.7,1.8c-3,1.3-5.8,3.1-8.1,5.5c-6.5,6.5-9.6,15.3-9.3,26.4
				c0,10.6,4.3,20.7,11.8,28.2c7.4,7.5,17.5,11.8,28.1,11.9c11.1,0.4,19.9-2.6,26.2-8.9c6.3-6.3,8.9-12.7,7.7-19.3
				c1.8,1.6,4.3,2.3,6.7,2c2.3-0.4,5.5-2.5,9.5-6.5c4-4,5.5-7.4,4.7-10.4c-0.5-1.4-1.1-2.6-2-3.8c-1.1-1.4-2.3-2.7-3.6-3.9
				l-38.2-38.2c-1.2-1.3-2.5-2.5-3.9-3.6c-1.2-0.8-2.5-1.5-3.9-1.9c-1.7-0.5-3.6-0.3-5.2,0.6c-2.6,1.6-5,3.5-7,5.7
				c-5.3,5.3-6.2,10.2-2.5,14.7C302.4-1174.3,301-1174.4,299.6-1174.3z M306.6-1131.4c-2.4-2.5-3.8-5.8-4-9.3
				c-0.3-3.8,1.2-7.5,3.9-10.1c2.5-2.7,6.2-4.2,9.9-3.8c3.4,0.2,6.7,1.6,9.2,4c2.4,2.5,3.8,5.7,3.8,9.2c0.2,3.6-1.2,7.2-3.8,9.7
				c-2.6,2.6-6.1,4.1-9.8,4C312.5-1127.6,309.1-1129,306.6-1131.4L306.6-1131.4z"/>
		</g>
	</g>
</pattern>
<g id="Layer_1" class="st4">
	<g id="dark" class="st5">
		<path d="M527.3,252.5c-1.2-0.6-2.4-1.1-3.7-1.5c-1,1.2-2.2,2.3-3.4,3.3c3.1,2.9,6.7,5,10.7,6.3c1.1,0.3,1.6,1.5,1.3,2.5
			c-0.2,0.6-0.7,1.1-1.4,1.3c-2.1,0.6-4.2,0.9-6.4,0.9c-4.3,0-8.6-1.1-12.3-3.4l-0.4-0.2c-0.5-0.4-1.1-0.7-1.7-0.8h-0.2
			c-1,0-2.1,0.9-3.3,1.8l-0.4,0.3c-3.5,2.6-9.4,5.6-14.7,5.6c-1,0-2.1-0.1-3.1-0.4c-1.1-0.3-1.7-1.4-1.4-2.5
			c0.2-0.6,0.6-1.1,1.3-1.3c2.5-1,4.9-2.3,7.1-4c0.9-0.6,1.8-1.3,2.5-2.2c-1.6-0.4-3.2-1-4.7-1.9c-3.6,2.6-6.9,5.6-9.8,9
			c-2.8,3-6.5,8.6-6.9,12.7c-1.7,18.8,9,33,21.8,38.3c5.5,2.3,11.7,2,17.6,1.5c4.4-0.4,9-0.8,12.7-3.1c2-1.3,3.7-3,5.2-4.9
			c5.5-6.2,9.2-13.8,10.7-21.9C547,274,540,258.8,527.3,252.5z M500.5,286c-1.7,0-3-1.3-3-3s1.3-3,3-3s3,1.3,3,3
			S502.2,286,500.5,286z M518.3,290.6L518.3,290.6c-1.5,2.9-3.4,4.3-5.8,4.4h-0.3c-2.4,0-4.5-1.3-5.5-3.4c-0.3-0.5-0.2-1.1,0.3-1.4
			c0.5-0.3,1.1-0.2,1.4,0.3c0.1,0.1,0.1,0.1,0.1,0.2c0.7,1.6,2.4,2.5,4.1,2.4c2.4-0.1,3.6-2.5,4-3.2c0.1-0.1,0.1-0.2,0.2-0.3
			c0.3-0.5,0.9-0.6,1.4-0.3S518.7,290,518.3,290.6C518.4,290.5,518.3,290.5,518.3,290.6z M523.5,285c-1.7,0-3-1.3-3-3s1.3-3,3-3
			s3,1.3,3,3S525.2,285,523.5,285L523.5,285z"/>
		<path d="M489,248.6c2.6,3.5,7.5,4.3,11.8,4.4c1.2,0.2,2.5-0.1,3.5-0.7c1.5-1.2,1.3-3.5,0.4-5.2c-0.9-1.6-1.2-3.2-3.5-4.4
			c4.2,0.3,6.4,7.3,11.1,8c2.1,0.3,4.2-0.9,6-2c2.9-1.8,5.8-3.7,7.7-6.4c-1.3,4.9-4.5,9.1-8.9,11.7c3.6,3.9,8.1,6.9,13.2,8.5
			c-5.8,1.6-11.9,0.8-17.1-2.3c-0.8-0.6-1.7-1-2.7-1.2c-2-0.3-3.8,1.2-5.4,2.4c-3.9,2.9-11.1,6.3-16.1,4.9c2.7-1.1,5.3-2.5,7.5-4.3
			c4-3,2.7-2.5,4.5-5.3C495.8,256.3,491,253.7,489,248.6z"/>
		<path d="M43.1,274.2l-7.8-0.5v16.6c-0.1,1.6,0.2,3.3,1,4.7c0.7,1,2,1.4,3.8,1.4c1.5,0,2.9,0,4.4,0.2c1.1,0.2,2.2,0.6,3.2,1.1
			c1.8,1,2.8,3.7,2.8,8c0,5-1.1,8.1-3.4,9.2c-1,0.5-2.1,0.8-3.2,1c-1.3,0.1-2.7,0.2-4,0.2c-8.3,0-14.7-1.9-19-5.6
			c-4.3-3.8-6.5-10.1-6.5-19v-17.8c-1.6,0.2-3.3,0.4-4.9,0.4c-1.7,0-3.3-0.7-4.4-2c-1.2-1.3-1.8-3.7-1.8-7c-0.1-2.4,0.1-4.8,0.6-7.1
			c0.2-1.2,0.8-2.3,1.7-3.2c1.4-1.1,3.1-1.6,4.8-1.6l4,0.5v-12.4c0-1.4,0-2.7,0.2-4.1c0.2-1,0.6-2,1.1-2.9c1-2,4.1-3,9.3-3
			c5.5,0,8.7,1.5,9.7,4.4c0.5,2,0.7,4.1,0.6,6.1v11.8c3.5-0.3,6.2-0.5,8-0.5c1.4,0,2.7,0,4.1,0.2c1.1,0.2,2.2,0.6,3.2,1.1
			c2.1,1,3.1,4.1,3.1,9.2s-1.1,8.2-3.3,9.2c-1,0.5-2.1,0.8-3.2,1C45.9,274.2,44.5,274.2,43.1,274.2z"/>
		<path d="M68.6,260.9c6.7-6.2,14.4-9.4,23.1-9.4c8.6,0,16.9,3.3,23,9.3c6.7,6.2,10,14.1,10,23.7c0.1,6.3-1.7,12.5-5.2,17.7
			c-3.1,4.8-7.4,8.8-12.6,11.4c-4.8,2.4-10,3.7-15.4,3.7c-5.4,0-10.7-1.4-15.4-3.9c-5.1-2.7-9.4-6.7-12.6-11.5
			c-3.4-5.1-5.2-11.1-5.1-17.2C58.5,275.1,61.9,267.1,68.6,260.9z M83.6,293.2c2.2,1.8,5,2.9,7.9,2.9c2.9-0.1,5.7-1.1,7.9-3
			c2.7-2,4-5,4-8.9c0-3.9-1.2-6.8-3.7-8.8c-2.3-1.8-5.1-2.9-8.1-2.9c-3,0-5.8,1.1-8.1,3c-2.5,2-3.7,4.9-3.7,8.8
			C79.9,288.4,81.1,291.3,83.6,293.2L83.6,293.2z"/>
		<path d="M153.1,261.4c3.8-5.7,8.3-8.5,13.6-8.5c8.2,0,14.3,3.5,18.3,10.4c1-1.3,2-2.6,3.2-3.8c1.8-1.7,3.8-3.2,5.9-4.3
			c2.5-1.5,5.5-2.3,8.4-2.3c6.2-0.1,12.1,2.6,16.1,7.4c4.3,4.9,6.5,13.1,6.5,24.4v21c0,1.4,0,2.8-0.2,4.1c-0.2,1.1-0.6,2.2-1.1,3.2
			c-1,2.2-4.1,3.2-9.3,3.2s-8.2-1.1-9.3-3.4c-0.5-1-0.8-2.1-1-3.2c-0.1-1.4-0.2-2.8-0.2-4.1v-21c0-7-2.5-10.4-7.5-10.4
			c-2.8,0-4.7,0.9-5.7,2.8c-1.1,2.4-1.6,5.1-1.5,7.8v21c0,1.4,0,2.8-0.2,4.2c-0.2,1.1-0.6,2.2-1.2,3.1c-1.1,2.2-4.3,3.2-9.4,3.2
			s-8.2-1.1-9.2-3.4c-0.5-1-0.8-2.1-1-3.2c-0.1-1.4-0.2-2.8-0.2-4.1v-21c0-7-2.5-10.4-7.4-10.4c-4.8,0-7.2,3.5-7.2,10.4v21.2
			c0,1.4,0,2.8-0.2,4.1c-0.2,1.1-0.6,2.2-1.1,3.2c-1.2,2.1-4.3,3.1-9.4,3.1s-8.2-1.1-9.3-3.2c-0.5-1-0.8-2-1-3.1
			c-0.1-1.4-0.2-2.8-0.2-4.2v-42.3c0-1.4,0-2.8,0.2-4.1c0.2-1.1,0.6-2.1,1.1-3.1c1.2-2.2,4-3.2,8.5-3.2s7.4,0.7,8.8,2.2
			C152.6,256.9,153.3,259.1,153.1,261.4z"/>
		<path d="M275.9,259.7c0.5-4.5,3.6-6.7,9.5-6.7c2.4-0.1,4.7,0.1,7,0.7c1.4,0.4,2.5,1.3,3.2,2.5c0.5,1,0.9,2.1,1.1,3.2
			c0.1,1.4,0.2,2.8,0.2,4.1v42c0,1.4,0,2.8-0.2,4.1c-0.2,1.1-0.5,2.2-1,3.2c-1.2,2.1-3.9,3.1-8.3,3.1c-4.4,0-7.3-0.5-8.8-1.6
			c-1.5-1.1-2.5-2.9-2.6-4.7c-3,4.2-7.9,6.4-14.9,6.4s-13.4-3.2-19.3-9.5c-5.8-5.9-9-13.8-8.9-22c-0.1-8.2,3.2-16.2,9-22
			c6-6.3,12.6-9.4,19.7-9.4c2.6,0,5.1,0.5,7.5,1.4c1.7,0.6,3.3,1.5,4.7,2.7C274.6,258,275.3,258.8,275.9,259.7z M254,284.7
			c0,2.7,1.2,5.3,3.1,7.1c2,2.1,4.7,3.2,7.6,3.2c2.8,0.1,5.5-1.1,7.4-3.2c1.9-1.9,2.9-4.5,3-7.1c0-2.7-1-5.3-2.8-7.3
			c-1.9-2.2-4.7-3.5-7.6-3.4c-2.9-0.1-5.8,1.1-7.7,3.4C255.1,279.3,254.1,281.9,254,284.7L254,284.7z"/>
		<path d="M343.2,274.2l-7.8-0.5v16.6c-0.1,1.6,0.3,3.3,1.1,4.7c0.7,1,2,1.4,3.9,1.4c1.4,0,2.9,0,4.3,0.2c1.1,0.2,2.2,0.6,3.2,1.1
			c1.8,1,2.8,3.7,2.8,8c0,5-1.1,8.1-3.4,9.2c-1,0.5-2.1,0.8-3.2,1c-1.3,0.1-2.7,0.2-4,0.2c-8.3,0-14.7-1.9-19-5.6
			c-4.3-3.8-6.5-10.1-6.6-19v-17.8c-1.6,0.2-3.3,0.4-4.9,0.4c-1.7,0-3.3-0.7-4.4-2c-1.2-1.3-1.7-3.7-1.7-7c-0.1-2.4,0.1-4.8,0.6-7.1
			c0.2-1.2,0.8-2.3,1.7-3.2c1.4-1.1,3.1-1.6,4.8-1.6l4,0.5v-12.4c0-1.4,0-2.7,0.2-4.1c0.2-1,0.6-2,1.1-2.9c1-2,4.1-3,9.3-3
			c5.5,0,8.7,1.5,9.7,4.4c0.5,2,0.7,4.1,0.6,6.1v11.8c3.5-0.3,6.2-0.5,8-0.5c1.4,0,2.7,0,4.1,0.2c1.1,0.2,2.2,0.6,3.2,1.1
			c2.1,1,3.1,4.1,3.1,9.2c0,5.1-1.1,8.2-3.2,9.2c-1,0.5-2.1,0.8-3.2,1C346,274.2,344.6,274.2,343.2,274.2z"/>
		<path d="M419.1,277c0,4.9-1.2,8.6-3.7,10.9c-2.1,2.2-5,3.5-8.1,3.5h-28.5c0,2.2,1.3,4.1,4,5.6c2.4,1.4,5.1,2.2,7.9,2.3
			c3.7,0.2,7.4-0.3,10.9-1.4l1.3-0.5c1.5-0.8,3.1-1.2,4.8-1.3c2.6,0,4.8,1.8,6.6,5.4c0.9,1.7,1.4,3.6,1.6,5.5
			c0,7.1-8.5,10.7-25.6,10.7c-5.4,0.1-10.8-0.9-15.8-3.1c-4.2-1.7-7.9-4.5-10.8-8.1c-4.9-6.2-7.6-13.8-7.6-21.7
			c0-10.1,3.3-18.1,9.8-24.2c6.5-6,14.7-9.1,24.5-9.1c11.1,0,19.3,3.9,24.5,11.8C417.7,267.4,419.1,272.2,419.1,277z M393.8,280.5
			c3.1,0,4.6-1.3,4.6-3.8c0.1-1.7-0.7-3.4-2.1-4.4c-1.8-1.2-3.9-1.8-6-1.7c-2.9,0.1-5.6,1.3-7.7,3.2c-2.6,2.1-3.9,4.4-3.9,6.8
			L393.8,280.5z"/>
		<path d="M462.5,274.2l-7.8-0.5v16.6c-0.1,1.6,0.2,3.3,1,4.7c0.7,1,2,1.4,3.9,1.4c1.4,0,2.9,0,4.3,0.2c1.1,0.2,2.2,0.6,3.2,1.1
			c1.8,1,2.8,3.7,2.8,8c0,5-1.1,8.1-3.4,9.2c-1,0.5-2.1,0.8-3.2,1c-1.3,0.1-2.7,0.2-4,0.2c-8.3,0-14.7-1.9-19-5.6
			c-4.3-3.8-6.5-10.1-6.5-19v-17.8c-1.6,0.2-3.3,0.4-4.9,0.4c-1.7,0-3.3-0.7-4.4-2c-1.2-1.3-1.8-3.7-1.8-7c-0.1-2.4,0.1-4.8,0.6-7.1
			c0.2-1.2,0.8-2.3,1.7-3.2c1.4-1.1,3.1-1.6,4.8-1.6l4,0.5v-12.4c0-1.4,0-2.7,0.2-4.1c0.2-1,0.6-2,1.1-2.9c1-2,4.1-3,9.3-3
			c5.4,0,8.7,1.5,9.7,4.4c0.5,2,0.7,4.1,0.6,6.1v11.8c3.5-0.3,6.2-0.5,8-0.5c1.4,0,2.7,0,4.1,0.2c1.1,0.2,2.2,0.6,3.2,1.1
			c2.1,1,3.1,4.1,3.1,9.2c0,5.1-1.1,8.2-3.3,9.2c-1,0.5-2.1,0.8-3.2,1C465.3,274.2,463.9,274.2,462.5,274.2z"/>
	</g>
</g>
<g id="Layer_2">
	<rect class="st4" width="550" height="550"/>
	<rect class="st6" width="550" height="550"/>
	<pattern  id="SVGID_1_" xlink:href="#New_Pattern_2" patternTransform="matrix(0.5004 0 0 0.5004 -3691.45 -4374.6221)">
	</pattern>
	<rect x="-294.6" y="-356.3" class="st7" width="1141.2" height="1141.2"/>
	<g>
		<g>
			<defs>
				<rect id="SVGID_00000080907830585639843270000014868135551960676509_" x="-294.6" y="-356.3" width="1141.2" height="1141.2"/>
			</defs>
			<clipPath id="SVGID_00000003102606835851679340000006149178937557221282_">
				<use xlink:href="#SVGID_00000080907830585639843270000014868135551960676509_"  style="overflow:visible;"/>
			</clipPath>
			<g style="clip-path:url(#SVGID_00000003102606835851679340000006149178937557221282_);">
				<g>
					<defs>
						<rect id="SVGID_00000160175039075698447410000007584094202622767497_" x="136.6" y="-280.2" width="550.4" height="550.4"/>
					</defs>
					<clipPath id="SVGID_00000132046383313142738180000008222367066685636788_">
						<use xlink:href="#SVGID_00000160175039075698447410000007584094202622767497_"  style="overflow:visible;"/>
					</clipPath>
					
						<g id="dark_00000029039331675419176760000013724164333058503572_" style="opacity:0.3;clip-path:url(#SVGID_00000132046383313142738180000008222367066685636788_);">
						<path class="st10" d="M544.3,261.5c-1.8-2.3-1.4-4.7,1.3-7.4c1-1.1,2.2-2.1,3.5-2.9c0.8-0.5,1.7-0.6,2.6-0.3
							c0.7,0.2,1.3,0.5,1.9,1c0.7,0.6,1.3,1.2,2,1.8l19.1,19.1c0.6,0.6,1.2,1.3,1.8,2c0.4,0.6,0.8,1.2,1,1.9
							c0.4,1.5-0.4,3.2-2.3,5.2c-2,2-3.6,3.1-4.7,3.3c-1.2,0.2-2.4-0.2-3.3-1c0.6,3.3-0.7,6.5-3.9,9.6c-3.2,3.2-7.5,4.6-13.1,4.5
							c-5.3-0.1-10.3-2.2-14.1-6c-3.8-3.7-5.9-8.8-5.9-14.1c-0.1-5.6,1.4-10,4.7-13.2c1.1-1.2,2.5-2.1,4-2.7
							c1.1-0.5,2.2-0.8,3.4-0.9C542.9,261.3,543.6,261.4,544.3,261.5z M545.7,282.8c1.2,1.2,2.9,1.9,4.7,1.8c1.8,0,3.6-0.7,4.9-2
							c1.3-1.3,2-3,1.9-4.8c0-1.7-0.7-3.4-1.9-4.6c-1.2-1.2-2.9-1.9-4.6-2c-1.9-0.2-3.7,0.5-5,1.9c-1.4,1.3-2.1,3.1-2,5
							C543.8,279.9,544.5,281.5,545.7,282.8L545.7,282.8z"/>
					</g>
					
						<g id="dark_00000052092880916036209630000001853622612450132883_" style="opacity:0.3;clip-path:url(#SVGID_00000132046383313142738180000008222367066685636788_);">
						<path class="st10" d="M366.5,161.2c-0.4,2.8-0.5,5.7-0.4,8.5c0.1,2.6,0.9,6.9,2.6,8.9c7.8,9.3,19.1,10.9,27.3,7.5
							c3.6-1.5,6.2-4.4,8.7-7.3c1.8-2.2,3.7-4.4,4.3-7.2c0.3-1.5,0.3-3.1,0.2-4.6c-0.3-5.3-2.1-10.5-5.1-14.9
							c-5.2-7.5-15.3-11.3-24-8.3c-0.8,0.3-1.6,0.6-2.3,1"/>
						<path class="st3" d="M383.2,171.3c-0.8,0.8-2,0.8-2.7,0c-0.8-0.8-0.8-2,0-2.7c0.8-0.8,2-0.8,2.7,0
							C384,169.3,384,170.5,383.2,171.3z M393.4,165.2L393.4,165.2c0.6,2,0.4,3.5-0.6,4.7l-0.2,0.2c-1.1,1.1-2.7,1.5-4.1,1
							c-0.4-0.1-0.6-0.4-0.5-0.8c0.1-0.4,0.4-0.6,0.8-0.5c0.1,0,0.1,0,0.2,0c1,0.4,2.2,0.1,2.9-0.8c1-1.1,0.5-2.8,0.3-3.3
							c0-0.1,0-0.2-0.1-0.2c-0.1-0.3,0.1-0.7,0.5-0.8C393,164.6,393.3,164.8,393.4,165.2C393.4,165.2,393.4,165.2,393.4,165.2z
							 M393.2,160.4c-0.8,0.8-2,0.8-2.7,0c-0.8-0.8-0.8-2,0-2.7c0.8-0.8,2-0.8,2.7,0C394,158.4,394,159.6,393.2,160.4L393.2,160.4z"
							/>
						<path class="st10" d="M361,159.5c2.8,0.4,5.3-1.5,7.4-3.4c0.6-0.5,1.1-1.2,1.3-1.9c0.1-1.2-1-2.2-2.2-2.5
							c-1.2-0.3-2-0.9-3.6-0.4c2-1.8,6.2,0.4,8.7-1.4c1.1-0.8,1.5-2.3,1.8-3.6c0.5-2.1,1-4.3,0.6-6.4c1.6,2.8,2.1,6.2,1.3,9.4
							c3.4,0.2,6.8-0.6,9.9-2.1c-1.9,3.4-5.1,5.8-8.8,6.7c-0.6,0.1-1.2,0.3-1.8,0.7c-1.1,0.8-1.2,2.3-1.4,3.6
							c-0.5,3.1-2.2,7.9-5.1,9.6c0.8-1.7,1.2-3.5,1.5-5.4c0.5-3.2,0.1-2.4-0.4-4.4C367.6,159.9,364.2,160.9,361,159.5z"/>
						<path class="st10" d="M269.1,261.5c-1.8-2.3-1.4-4.7,1.3-7.4c1-1.1,2.2-2.1,3.5-2.9c0.8-0.5,1.7-0.6,2.6-0.3
							c0.7,0.2,1.3,0.5,1.9,1c0.7,0.6,1.3,1.2,2,1.8l19.1,19.1c0.6,0.6,1.2,1.3,1.8,2c0.4,0.6,0.8,1.2,1,1.9
							c0.4,1.5-0.4,3.2-2.3,5.2c-2,2-3.6,3.1-4.7,3.3c-1.2,0.2-2.4-0.2-3.3-1c0.6,3.3-0.7,6.5-3.9,9.6s-7.5,4.6-13.1,4.5
							c-5.3-0.1-10.3-2.2-14.1-6c-3.8-3.7-5.9-8.8-5.9-14.1c-0.1-5.6,1.4-10,4.7-13.2c1.1-1.2,2.5-2.1,4-2.7
							c1.1-0.5,2.2-0.8,3.4-0.9C267.7,261.3,268.4,261.4,269.1,261.5z M270.5,282.8c1.2,1.2,2.9,1.9,4.7,1.8c1.8,0,3.6-0.7,4.9-2
							c1.3-1.3,2-3,1.9-4.8c0-1.7-0.7-3.4-1.9-4.6c-1.2-1.2-2.9-1.9-4.6-2c-1.9-0.2-3.7,0.5-5,1.9c-1.4,1.3-2.1,3.1-2,5
							C268.6,279.9,269.3,281.5,270.5,282.8L270.5,282.8z"/>
						<path class="st10" d="M306.3,237.4l-3.8,3.3l7.5,7.5c0.7,0.8,1.6,1.4,2.6,1.7c0.8,0.1,1.6-0.3,2.4-1.1
							c0.6-0.7,1.3-1.3,2.1-1.9c0.6-0.4,1.3-0.8,2-0.9c1.3-0.4,2.9,0.4,4.9,2.4c2.3,2.3,3.2,4.2,2.7,5.7c-0.2,0.7-0.6,1.3-1,1.9
							c-0.5,0.7-1.1,1.3-1.7,1.9c-3.8,3.8-7.5,5.8-11.2,6.1c-3.7,0.3-7.6-1.6-11.7-5.7l-8.1-8.1c-0.6,0.9-1.3,1.7-2.1,2.4
							c-0.8,0.8-1.8,1.2-2.9,1.1c-1.1-0.1-2.5-0.9-4-2.4c-1.1-1-2.1-2.2-3-3.5c-0.4-0.7-0.7-1.4-0.7-2.2c0.1-1.1,0.7-2.1,1.5-2.9
							l2-1.6l-5.6-5.6c-0.6-0.6-1.2-1.3-1.8-1.9c-0.4-0.5-0.7-1.2-0.8-1.8c-0.4-1.4,0.5-3.2,2.8-5.6c2.5-2.5,4.6-3.3,6.5-2.4
							c1.1,0.7,2.2,1.5,3.1,2.5l5.3,5.3c1.5-1.8,2.6-3,3.4-3.9c0.6-0.6,1.3-1.2,1.9-1.8c0.6-0.4,1.3-0.7,2-0.9
							c1.4-0.5,3.3,0.4,5.6,2.8c2.3,2.3,3.2,4.2,2.7,5.7c-0.2,0.7-0.6,1.3-1,1.9C307.6,236.2,307,236.8,306.3,237.4z"/>
						<path class="st10" d="M342.1,204.2c2.2,2.2,3.3,4.5,3.3,6.6c0,2-0.7,3.9-2.1,5.3l-13,13c1,1,2.5,1.3,4.4,0.7
							c1.8-0.4,3.4-1.3,4.6-2.6c1.7-1.6,3.2-3.5,4.3-5.6l0.4-0.8c0.3-1,0.9-2,1.6-2.8c1.2-1.2,3-1.4,5.5-0.6c1.2,0.4,2.3,1,3.2,1.8
							c3.2,3.2,1,8.7-6.8,16.5c-2.4,2.5-5.4,4.5-8.6,5.8c-2.7,1.1-5.7,1.5-8.6,1.2c-5-0.6-9.8-2.8-13.3-6.4
							c-4.6-4.6-6.8-9.7-6.5-15.5c0.2-5.7,2.6-10.8,7-15.3c5.1-5.1,10.6-7,16.5-5.8C337.1,200.5,339.9,202,342.1,204.2z
							 M332.2,217.3c1.4-1.4,1.5-2.7,0.3-3.8c-0.8-0.8-1.9-1.2-3-1.1c-1.4,0.2-2.6,0.9-3.5,2c-1.2,1.4-2,3.1-2,5
							c-0.2,2.2,0.2,3.8,1.3,4.9L332.2,217.3z"/>
						<path class="st10" d="M360.6,183.2l-3.8,3.3l7.5,7.5c0.7,0.8,1.6,1.4,2.6,1.7c0.8,0.1,1.6-0.3,2.4-1.1
							c0.6-0.7,1.3-1.3,2.1-1.9c0.6-0.4,1.3-0.8,2-0.9c1.3-0.4,2.9,0.4,4.9,2.4c2.3,2.3,3.2,4.2,2.7,5.7c-0.2,0.7-0.6,1.3-1,1.9
							c-0.5,0.7-1.1,1.3-1.7,1.9c-3.8,3.8-7.5,5.8-11.2,6.1c-3.7,0.3-7.5-1.6-11.6-5.7l-8.1-8.1c-0.6,0.9-1.3,1.7-2.1,2.4
							c-0.8,0.8-1.8,1.2-2.9,1.1c-1.1-0.1-2.5-0.9-4-2.4c-1.1-1.1-2.1-2.2-3-3.5c-0.4-0.7-0.7-1.4-0.7-2.2c0.1-1.1,0.7-2.1,1.5-2.9
							l2-1.6l-5.6-5.6c-0.6-0.6-1.2-1.3-1.8-1.9c-0.4-0.5-0.7-1.2-0.8-1.8c-0.4-1.4,0.5-3.2,2.8-5.6c2.5-2.5,4.6-3.3,6.5-2.4
							c1.1,0.7,2.2,1.5,3.1,2.5l5.3,5.3c1.5-1.8,2.6-3,3.4-3.9c0.6-0.6,1.3-1.2,1.9-1.8c0.6-0.4,1.3-0.7,2-0.9
							c1.4-0.5,3.3,0.5,5.6,2.8c2.3,2.3,3.2,4.2,2.7,5.7c-0.2,0.7-0.6,1.3-1,1.9C361.8,181.9,361.2,182.6,360.6,183.2z"/>
					</g>
					
						<g id="dark_00000157305120866331650050000016669282682902850442_" style="opacity:0.3;clip-path:url(#SVGID_00000132046383313142738180000008222367066685636788_);">
						<path class="st10" d="M307.4,98.8l-3.8,3.3l7.5,7.5c0.7,0.8,1.6,1.4,2.6,1.7c0.8,0.1,1.6-0.3,2.4-1.1c0.7-0.7,1.3-1.3,2.1-1.9
							c0.6-0.4,1.3-0.8,2-0.9c1.3-0.4,2.9,0.4,4.9,2.4c2.3,2.3,3.2,4.2,2.7,5.7c-0.2,0.7-0.6,1.3-1,1.9c-0.5,0.7-1.1,1.3-1.7,1.9
							c-3.8,3.8-7.5,5.8-11.2,6.1s-7.6-1.6-11.6-5.7l-8.1-8.1c-0.6,0.9-1.3,1.7-2.1,2.4c-0.8,0.8-1.8,1.2-2.9,1.1
							c-1.1-0.1-2.5-0.9-4-2.4c-1.1-1-2.1-2.2-3-3.5c-0.4-0.7-0.7-1.4-0.7-2.2c0.1-1.1,0.7-2.1,1.5-2.9l2-1.6l-5.6-5.6
							c-0.6-0.6-1.2-1.3-1.8-1.9c-0.4-0.5-0.7-1.2-0.8-1.8c-0.4-1.4,0.5-3.2,2.8-5.6c2.5-2.5,4.6-3.3,6.5-2.4
							c1.1,0.7,2.2,1.5,3.1,2.5l5.3,5.3c1.5-1.8,2.6-3,3.4-3.9c0.6-0.6,1.3-1.2,1.9-1.8c0.6-0.4,1.3-0.7,2-0.9
							c1.4-0.5,3.3,0.5,5.6,2.8c2.3,2.3,3.2,4.2,2.7,5.7c-0.2,0.7-0.6,1.3-1,1.9C308.6,97.5,308.1,98.1,307.4,98.8z"/>
						<path class="st10" d="M313,81.1c0.2-5.9,2.3-10.8,6.2-14.8c3.9-3.9,9.2-6.2,14.7-6.2c5.9-0.2,11,1.9,15.3,6.2
							c2.9,2.8,4.9,6.4,5.7,10.4c0.8,3.6,0.6,7.4-0.5,10.9c-1.1,3.3-2.9,6.2-5.3,8.7c-2.5,2.4-5.5,4.2-8.8,5.2
							c-3.6,1.1-7.3,1.2-11,0.5c-3.9-0.8-7.4-2.7-10.2-5.5C314.8,92.2,312.7,87,313,81.1z M334.5,89c1.9-0.2,3.6-1,4.9-2.3
							c1.3-1.4,2.1-3.1,2.2-5c0.3-2.1-0.4-4.1-2.2-5.9s-3.7-2.5-5.7-2.3c-1.9,0.2-3.6,1-5,2.4c-1.3,1.4-2.1,3.1-2.3,5
							c-0.2,2,0.5,3.9,2.3,5.7S332.5,89.2,334.5,89L334.5,89z"/>
						<path class="st10" d="M351.6,42.9c-0.9-4.3-0.1-7.7,2.3-10.1c3.7-3.7,8.1-4.9,13.1-3.6c-0.2-1.1-0.2-2.1-0.3-3.2
							c0-1.6,0.3-3.2,0.7-4.7c0.5-1.8,1.4-3.5,2.8-4.9c2.8-2.9,6.7-4.3,10.7-4c4.2,0.3,8.9,3,14.1,8.2l9.6,9.6
							c0.6,0.6,1.2,1.3,1.8,2c0.4,0.6,0.7,1.3,0.9,2c0.5,1.5-0.4,3.4-2.7,5.7s-4.2,3.2-5.7,2.7c-0.7-0.2-1.3-0.6-1.9-1
							c-0.7-0.6-1.3-1.2-2-1.8l-9.6-9.6c-3.2-3.2-5.9-3.6-8.1-1.4c-1.3,1.3-1.7,2.6-1.3,3.9c0.6,1.6,1.6,3.1,2.9,4.2l9.6,9.6
							c0.6,0.6,1.3,1.3,1.8,2c0.4,0.6,0.7,1.3,0.9,1.9c0.5,1.5-0.5,3.4-2.8,5.7s-4.2,3.2-5.7,2.7c-0.7-0.2-1.3-0.6-1.9-1
							c-0.7-0.6-1.3-1.2-2-1.8l-9.6-9.6c-3.2-3.2-5.9-3.6-8.1-1.4c-2.2,2.2-1.7,4.9,1.5,8l9.7,9.7c0.6,0.6,1.2,1.3,1.8,2
							c0.4,0.6,0.7,1.3,0.9,2c0.4,1.5-0.5,3.4-2.8,5.7c-2.3,2.3-4.2,3.2-5.7,2.8c-0.7-0.2-1.3-0.6-1.9-1c-0.7-0.6-1.4-1.2-2-1.8
							l-19.2-19.2c-0.6-0.6-1.2-1.3-1.8-2c-0.4-0.6-0.7-1.2-0.9-1.9c-0.4-1.5,0.3-3.3,2.4-5.4c2.1-2.1,3.7-3,5-3
							C349.3,41.1,350.7,41.8,351.6,42.9z"/>
						<path class="st10" d="M406.7-13.7c-1.8-2.3-1.4-4.7,1.3-7.4c1-1.1,2.2-2.1,3.5-2.9c0.8-0.5,1.7-0.6,2.6-0.3
							c0.7,0.2,1.3,0.5,1.9,1c0.7,0.6,1.3,1.2,2,1.8l19.1,19.1c0.6,0.6,1.2,1.3,1.8,2c0.4,0.6,0.8,1.2,1,1.9
							c0.4,1.5-0.4,3.2-2.3,5.2c-2,2-3.6,3.1-4.7,3.3c-1.2,0.2-2.4-0.2-3.3-1c0.6,3.3-0.7,6.5-3.9,9.6s-7.5,4.6-13.1,4.5
							c-5.3-0.1-10.3-2.2-14.1-6c-3.8-3.7-5.9-8.8-5.9-14.1c-0.1-5.6,1.4-10,4.7-13.2c1.1-1.2,2.5-2.1,4-2.7
							c1.1-0.5,2.2-0.8,3.4-0.9C405.3-13.9,406-13.9,406.7-13.7z M408.1,7.6c1.2,1.2,2.9,1.9,4.7,1.8c1.8,0,3.6-0.7,4.9-2
							c1.3-1.3,2-3,1.9-4.8c0-1.7-0.7-3.4-1.9-4.6c-1.2-1.2-2.9-1.9-4.6-2c-1.9-0.2-3.7,0.5-5,1.9c-1.4,1.3-2.1,3.1-2,5
							C406.2,4.7,406.9,6.3,408.1,7.6L408.1,7.6z"/>
					</g>
					
						<g id="dark_00000014627837435928405750000013808325688476570030_" style="opacity:0.3;clip-path:url(#SVGID_00000132046383313142738180000008222367066685636788_);">
						<path class="st10" d="M131.5-13.7c-1.8-2.3-1.4-4.7,1.3-7.4c1-1.1,2.2-2.1,3.5-2.9c0.8-0.5,1.7-0.6,2.6-0.3
							c0.7,0.2,1.3,0.5,1.9,1c0.7,0.6,1.3,1.2,2,1.8l19.1,19.1c0.6,0.6,1.2,1.3,1.8,2c0.4,0.6,0.8,1.2,1,1.9
							c0.4,1.5-0.4,3.2-2.3,5.2c-2,2-3.6,3.1-4.7,3.3c-1.2,0.2-2.4-0.2-3.3-1c0.6,3.3-0.7,6.5-3.9,9.6s-7.5,4.6-13.1,4.5
							c-5.3-0.1-10.3-2.2-14.1-6c-3.8-3.7-5.9-8.8-5.9-14.1c-0.1-5.6,1.4-10,4.7-13.2c1.1-1.2,2.5-2.1,4-2.7
							c1.1-0.5,2.2-0.8,3.4-0.9C130.1-13.9,130.8-13.9,131.5-13.7z M132.9,7.6c1.2,1.2,2.9,1.9,4.7,1.8c1.8,0,3.6-0.7,4.9-2
							c1.3-1.3,2-3,1.9-4.8c0-1.7-0.7-3.4-1.9-4.6c-1.2-1.2-2.9-1.9-4.6-2c-1.9-0.2-3.7,0.5-5,1.9c-1.4,1.3-2.1,3.1-2,5
							C131,4.7,131.7,6.3,132.9,7.6L132.9,7.6z"/>
					</g>
				</g>
			</g>
			<g style="clip-path:url(#SVGID_00000003102606835851679340000006149178937557221282_);">
				<g>
					<defs>
						<rect id="SVGID_00000091730198532140127050000001488704441444082591_" x="136.6" y="270.2" width="550.4" height="550.4"/>
					</defs>
					<clipPath id="SVGID_00000141433405460817716230000009907789745087670150_">
						<use xlink:href="#SVGID_00000091730198532140127050000001488704441444082591_"  style="overflow:visible;"/>
					</clipPath>
					
						<g id="dark_00000013903511853200648950000001268674804319858573_" style="opacity:0.3;clip-path:url(#SVGID_00000141433405460817716230000009907789745087670150_);">
						<path class="st10" d="M504.1,436.4c-0.4,2.8-0.5,5.7-0.4,8.5c0.1,2.6,0.9,6.9,2.6,8.9c7.8,9.3,19.1,10.9,27.3,7.5
							c3.6-1.5,6.2-4.4,8.7-7.3c1.8-2.2,3.7-4.4,4.3-7.2c0.3-1.5,0.3-3.1,0.2-4.6c-0.3-5.3-2.1-10.5-5.1-14.9
							c-5.2-7.5-15.3-11.3-24-8.3c-0.8,0.3-1.6,0.6-2.3,1"/>
						<path class="st3" d="M520.8,446.5c-0.8,0.8-2,0.8-2.7,0s-0.8-2,0-2.7c0.8-0.8,2-0.8,2.7,0
							C521.6,444.5,521.6,445.7,520.8,446.5z M531,440.4L531,440.4c0.6,2,0.4,3.5-0.6,4.7l-0.2,0.2c-1.1,1.1-2.7,1.5-4.1,1
							c-0.4-0.1-0.6-0.4-0.5-0.8c0.1-0.4,0.4-0.6,0.8-0.5c0.1,0,0.1,0,0.2,0c1,0.4,2.2,0.1,2.9-0.8c1-1.1,0.5-2.8,0.3-3.3
							c0-0.1,0-0.2-0.1-0.2c-0.1-0.3,0.1-0.7,0.5-0.8C530.6,439.8,530.9,440,531,440.4C531,440.4,531,440.4,531,440.4z M530.9,435.6
							c-0.8,0.8-2,0.8-2.7,0c-0.8-0.8-0.8-2,0-2.7c0.8-0.8,2-0.8,2.7,0S531.6,434.8,530.9,435.6L530.9,435.6z"/>
						<path class="st10" d="M498.6,434.7c2.8,0.4,5.3-1.5,7.4-3.4c0.6-0.5,1.1-1.2,1.3-1.9c0.1-1.2-1-2.2-2.2-2.5
							c-1.2-0.3-2-0.9-3.6-0.4c2-1.8,6.2,0.4,8.7-1.4c1.1-0.8,1.5-2.3,1.8-3.6c0.5-2.1,1-4.3,0.6-6.4c1.6,2.8,2.1,6.2,1.3,9.4
							c3.4,0.2,6.8-0.6,9.9-2.1c-1.9,3.4-5.1,5.8-8.8,6.7c-0.6,0.1-1.2,0.3-1.8,0.7c-1.1,0.8-1.2,2.3-1.4,3.6
							c-0.5,3.1-2.2,7.9-5.1,9.6c0.8-1.7,1.2-3.5,1.5-5.4c0.5-3.2,0.1-2.4-0.4-4.4C505.2,435.1,501.8,436.1,498.6,434.7z"/>
						<path class="st10" d="M406.7,536.7c-1.8-2.3-1.4-4.7,1.3-7.4c1-1.1,2.2-2.1,3.5-2.9c0.8-0.5,1.7-0.6,2.6-0.3
							c0.7,0.2,1.3,0.5,1.9,1c0.7,0.6,1.3,1.2,2,1.8l19.1,19.1c0.6,0.6,1.2,1.3,1.8,2c0.4,0.6,0.8,1.2,1,1.9
							c0.4,1.5-0.4,3.2-2.3,5.2c-2,2-3.6,3.1-4.7,3.3c-1.2,0.2-2.4-0.2-3.3-1c0.6,3.3-0.7,6.5-3.9,9.6c-3.2,3.2-7.5,4.6-13.1,4.5
							c-5.3-0.1-10.3-2.2-14.1-6c-3.8-3.7-5.9-8.8-5.9-14.1c-0.1-5.6,1.4-10,4.7-13.2c1.1-1.2,2.5-2.1,4-2.7
							c1.1-0.5,2.2-0.8,3.4-0.9C405.3,536.5,406,536.6,406.7,536.7z M408.1,558c1.2,1.2,2.9,1.9,4.7,1.8c1.8,0,3.6-0.7,4.9-2
							c1.3-1.3,2-3,1.9-4.8c0-1.7-0.7-3.4-1.9-4.6c-1.2-1.2-2.9-1.9-4.6-2c-1.9-0.2-3.7,0.5-5,1.9c-1.4,1.3-2.1,3.1-2,5
							C406.2,555.1,406.9,556.7,408.1,558L408.1,558z"/>
						<path class="st10" d="M444,512.6l-3.8,3.3l7.5,7.5c0.7,0.8,1.6,1.4,2.6,1.7c0.8,0.1,1.6-0.3,2.4-1.1c0.6-0.7,1.3-1.3,2.1-1.9
							c0.6-0.4,1.3-0.8,2-0.9c1.3-0.4,2.9,0.4,4.9,2.4c2.3,2.3,3.2,4.2,2.7,5.7c-0.2,0.7-0.6,1.3-1,1.9c-0.5,0.7-1.1,1.3-1.7,1.9
							c-3.8,3.8-7.5,5.8-11.2,6.1s-7.6-1.6-11.7-5.7l-8.1-8.1c-0.6,0.9-1.3,1.7-2.1,2.4c-0.8,0.8-1.8,1.2-2.9,1.1
							c-1.1-0.1-2.5-0.9-4-2.4c-1.1-1-2.1-2.2-3-3.5c-0.4-0.7-0.7-1.4-0.7-2.2c0.1-1.1,0.7-2.1,1.5-2.9l2-1.6l-5.6-5.6
							c-0.6-0.6-1.2-1.3-1.8-1.9c-0.4-0.5-0.7-1.2-0.8-1.8c-0.4-1.4,0.5-3.2,2.8-5.6c2.5-2.5,4.6-3.3,6.5-2.4
							c1.1,0.7,2.2,1.5,3.1,2.5l5.3,5.3c1.5-1.8,2.6-3,3.4-3.9c0.6-0.6,1.3-1.2,1.9-1.8c0.6-0.4,1.3-0.7,2-0.9
							c1.4-0.5,3.3,0.4,5.6,2.8c2.3,2.3,3.2,4.2,2.7,5.7c-0.2,0.7-0.6,1.3-1,1.9C445.2,511.4,444.6,512,444,512.6z"/>
						<path class="st10" d="M479.7,479.4c2.2,2.2,3.3,4.5,3.3,6.6c0,2-0.7,3.9-2.1,5.3l-13,13c1,1,2.5,1.3,4.4,0.7
							c1.8-0.4,3.4-1.3,4.6-2.6c1.7-1.6,3.2-3.5,4.3-5.6l0.4-0.8c0.3-1,0.9-2,1.6-2.8c1.2-1.2,3-1.4,5.5-0.6c1.2,0.4,2.3,1,3.2,1.8
							c3.2,3.2,1,8.7-6.8,16.5c-2.4,2.5-5.4,4.5-8.6,5.8c-2.7,1.1-5.7,1.5-8.6,1.2c-5-0.6-9.8-2.8-13.3-6.4
							c-4.6-4.6-6.8-9.7-6.5-15.5c0.2-5.7,2.6-10.8,7-15.3c5.1-5.1,10.6-7,16.5-5.8C474.7,475.7,477.5,477.2,479.7,479.4z
							 M469.8,492.5c1.4-1.4,1.5-2.7,0.3-3.8c-0.8-0.8-1.9-1.2-3-1.1c-1.4,0.2-2.6,0.9-3.5,2c-1.2,1.4-2,3.1-2,5
							c-0.2,2.2,0.2,3.8,1.3,4.9L469.8,492.5z"/>
						<path class="st10" d="M498.2,458.4l-3.8,3.3l7.5,7.5c0.7,0.8,1.6,1.4,2.6,1.7c0.8,0.1,1.6-0.3,2.4-1.1
							c0.6-0.7,1.3-1.3,2.1-1.9c0.6-0.4,1.3-0.8,2-0.9c1.3-0.4,2.9,0.4,4.9,2.4c2.3,2.3,3.2,4.2,2.7,5.7c-0.2,0.7-0.6,1.3-1,1.9
							c-0.5,0.7-1.1,1.3-1.7,1.9c-3.8,3.8-7.5,5.8-11.2,6.1s-7.5-1.6-11.6-5.7l-8.1-8.1c-0.6,0.9-1.3,1.7-2.1,2.4
							c-0.8,0.8-1.8,1.2-2.9,1.1c-1.1-0.1-2.5-0.9-4-2.4c-1.1-1.1-2.1-2.2-3-3.5c-0.4-0.7-0.7-1.4-0.7-2.2c0.1-1.1,0.7-2.1,1.5-2.9
							l2-1.6l-5.6-5.6c-0.6-0.6-1.2-1.3-1.8-1.9c-0.4-0.5-0.7-1.2-0.8-1.8c-0.4-1.4,0.5-3.2,2.8-5.6c2.5-2.5,4.6-3.3,6.5-2.4
							c1.1,0.7,2.2,1.5,3.1,2.5l5.3,5.3c1.5-1.8,2.6-3,3.4-3.9c0.6-0.6,1.3-1.2,1.9-1.8c0.6-0.4,1.3-0.7,2-0.9
							c1.4-0.5,3.3,0.5,5.6,2.8c2.3,2.3,3.2,4.2,2.7,5.7c-0.2,0.7-0.6,1.3-1,1.9C499.4,457.1,498.8,457.8,498.2,458.4z"/>
					</g>
					
						<g id="dark_00000158026069372027838190000006052595903445157284_" style="opacity:0.3;clip-path:url(#SVGID_00000141433405460817716230000009907789745087670150_);">
						<path class="st10" d="M228.8,436.4c-0.4,2.8-0.5,5.7-0.4,8.5c0.1,2.6,0.9,6.9,2.6,8.9c7.8,9.3,19.1,10.9,27.3,7.5
							c3.6-1.5,6.2-4.4,8.7-7.3c1.8-2.2,3.7-4.4,4.3-7.2c0.3-1.5,0.3-3.1,0.2-4.6c-0.3-5.3-2.1-10.5-5.1-14.9
							c-5.2-7.5-15.3-11.3-24-8.3c-0.8,0.3-1.6,0.6-2.3,1"/>
						<path class="st3" d="M245.6,446.5c-0.8,0.8-2,0.8-2.7,0c-0.8-0.8-0.8-2,0-2.7c0.8-0.8,2-0.8,2.7,0
							C246.4,444.5,246.4,445.7,245.6,446.5z M255.8,440.4L255.8,440.4c0.6,2,0.4,3.5-0.6,4.7l-0.2,0.2c-1.1,1.1-2.7,1.5-4.1,1
							c-0.4-0.1-0.6-0.4-0.5-0.8s0.4-0.6,0.8-0.5c0.1,0,0.1,0,0.2,0c1,0.4,2.2,0.1,2.9-0.8c1-1.1,0.5-2.8,0.3-3.3
							c0-0.1,0-0.2-0.1-0.2c-0.1-0.3,0.1-0.7,0.5-0.8C255.4,439.8,255.7,440,255.8,440.4C255.8,440.4,255.8,440.4,255.8,440.4z
							 M255.6,435.6c-0.8,0.8-2,0.8-2.7,0c-0.8-0.8-0.8-2,0-2.7c0.8-0.8,2-0.8,2.7,0S256.4,434.8,255.6,435.6L255.6,435.6z"/>
						<path class="st10" d="M223.4,434.7c2.8,0.4,5.3-1.5,7.4-3.4c0.6-0.5,1.1-1.2,1.3-1.9c0.1-1.2-1-2.2-2.2-2.5
							c-1.2-0.3-2-0.9-3.6-0.4c2-1.8,6.2,0.4,8.7-1.4c1.1-0.8,1.5-2.3,1.8-3.6c0.5-2.1,1-4.3,0.6-6.4c1.6,2.8,2.1,6.2,1.3,9.4
							c3.4,0.2,6.8-0.6,9.9-2.1c-1.9,3.4-5.1,5.8-8.8,6.7c-0.6,0.1-1.2,0.3-1.8,0.7c-1.1,0.8-1.2,2.3-1.4,3.6
							c-0.5,3.1-2.2,7.9-5.1,9.6c0.8-1.7,1.2-3.5,1.5-5.4c0.5-3.2,0.1-2.4-0.4-4.4C230,435.1,226.6,436.1,223.4,434.7z"/>
						<path class="st10" d="M131.5,536.7c-1.8-2.3-1.4-4.7,1.3-7.4c1-1.1,2.2-2.1,3.5-2.9c0.8-0.5,1.7-0.6,2.6-0.3
							c0.7,0.2,1.3,0.5,1.9,1c0.7,0.6,1.3,1.2,2,1.8l19.1,19.1c0.6,0.6,1.2,1.3,1.8,2c0.4,0.6,0.8,1.2,1,1.9
							c0.4,1.5-0.4,3.2-2.3,5.2c-2,2-3.6,3.1-4.7,3.3c-1.2,0.2-2.4-0.2-3.3-1c0.6,3.3-0.7,6.5-3.9,9.6c-3.2,3.2-7.5,4.6-13.1,4.5
							c-5.3-0.1-10.3-2.2-14.1-6c-3.8-3.7-5.9-8.8-5.9-14.1c-0.1-5.6,1.4-10,4.7-13.2c1.1-1.2,2.5-2.1,4-2.7
							c1.1-0.5,2.2-0.8,3.4-0.9C130.1,536.5,130.8,536.6,131.5,536.7z M132.9,558c1.2,1.2,2.9,1.9,4.7,1.8c1.8,0,3.6-0.7,4.9-2
							c1.3-1.3,2-3,1.9-4.8c0-1.7-0.7-3.4-1.9-4.6c-1.2-1.2-2.9-1.9-4.6-2c-1.9-0.2-3.7,0.5-5,1.9c-1.4,1.3-2.1,3.1-2,5
							C131,555.1,131.7,556.7,132.9,558L132.9,558z"/>
						<path class="st10" d="M168.7,512.6L165,516l7.5,7.5c0.7,0.8,1.6,1.4,2.6,1.7c0.8,0.1,1.6-0.3,2.4-1.1c0.6-0.7,1.3-1.3,2.1-1.9
							c0.6-0.4,1.3-0.8,2-0.9c1.3-0.4,2.9,0.4,4.9,2.4c2.3,2.3,3.2,4.2,2.7,5.7c-0.2,0.7-0.6,1.3-1,1.9c-0.5,0.7-1.1,1.3-1.7,1.9
							c-3.8,3.8-7.5,5.8-11.2,6.1s-7.6-1.6-11.7-5.7l-8.1-8.1c-0.6,0.9-1.3,1.7-2.1,2.4c-0.8,0.8-1.8,1.2-2.9,1.1
							c-1.1-0.1-2.5-0.9-4-2.4c-1.1-1-2.1-2.2-3-3.5c-0.4-0.7-0.7-1.4-0.7-2.2c0.1-1.1,0.7-2.1,1.5-2.9l2-1.6l-5.6-5.6
							c-0.6-0.6-1.2-1.3-1.8-1.9c-0.4-0.5-0.7-1.2-0.8-1.8c-0.4-1.4,0.5-3.2,2.8-5.6c2.5-2.5,4.6-3.3,6.5-2.4
							c1.1,0.7,2.2,1.5,3.1,2.5l5.3,5.3c1.5-1.8,2.6-3,3.4-3.9c0.6-0.6,1.3-1.2,1.9-1.8c0.6-0.4,1.3-0.7,2-0.9
							c1.4-0.5,3.3,0.4,5.6,2.8c2.3,2.3,3.2,4.2,2.7,5.7c-0.2,0.7-0.6,1.3-1,1.9C170,511.4,169.4,512,168.7,512.6z"/>
						<path class="st10" d="M204.5,479.4c2.2,2.2,3.3,4.5,3.3,6.6c0,2-0.7,3.9-2.1,5.3l-13,13c1,1,2.5,1.3,4.4,0.7
							c1.8-0.4,3.4-1.3,4.6-2.6c1.7-1.6,3.2-3.5,4.3-5.6l0.4-0.8c0.3-1,0.9-2,1.6-2.8c1.2-1.2,3-1.4,5.5-0.6c1.2,0.4,2.3,1,3.2,1.8
							c3.2,3.2,1,8.7-6.8,16.5c-2.4,2.5-5.4,4.5-8.6,5.8c-2.7,1.1-5.7,1.5-8.6,1.2c-5-0.6-9.8-2.8-13.3-6.4
							c-4.6-4.6-6.8-9.7-6.5-15.5c0.2-5.7,2.6-10.8,7-15.3c5.1-5.1,10.6-7,16.5-5.8C199.5,475.7,202.3,477.2,204.5,479.4z
							 M194.6,492.5c1.4-1.4,1.5-2.7,0.3-3.8c-0.8-0.8-1.9-1.2-3-1.1c-1.4,0.2-2.6,0.9-3.5,2c-1.2,1.4-2,3.1-2,5
							c-0.2,2.2,0.2,3.8,1.3,4.9L194.6,492.5z"/>
						<path class="st10" d="M223,458.4l-3.8,3.3l7.5,7.5c0.7,0.8,1.6,1.4,2.6,1.7c0.8,0.1,1.6-0.3,2.4-1.1c0.6-0.7,1.3-1.3,2.1-1.9
							c0.6-0.4,1.3-0.8,2-0.9c1.3-0.4,2.9,0.4,4.9,2.4c2.3,2.3,3.2,4.2,2.7,5.7c-0.2,0.7-0.6,1.3-1,1.9c-0.5,0.7-1.1,1.3-1.7,1.9
							c-3.8,3.8-7.5,5.8-11.2,6.1c-3.7,0.3-7.5-1.6-11.6-5.7l-8.1-8.1c-0.6,0.9-1.3,1.7-2.1,2.4c-0.8,0.8-1.8,1.2-2.9,1.1
							c-1.1-0.1-2.5-0.9-4-2.4c-1.1-1.1-2.1-2.2-3-3.5c-0.4-0.7-0.7-1.4-0.7-2.2c0.1-1.1,0.7-2.1,1.5-2.9l2-1.6l-5.6-5.6
							c-0.6-0.6-1.2-1.3-1.8-1.9c-0.4-0.5-0.7-1.2-0.8-1.8c-0.4-1.4,0.5-3.2,2.8-5.6c2.5-2.5,4.6-3.3,6.5-2.4
							c1.1,0.7,2.2,1.5,3.1,2.5l5.3,5.3c1.5-1.8,2.6-3,3.4-3.9c0.6-0.6,1.3-1.2,1.9-1.8c0.6-0.4,1.3-0.7,2-0.9
							c1.4-0.5,3.3,0.5,5.6,2.8c2.3,2.3,3.2,4.2,2.7,5.7c-0.2,0.7-0.6,1.3-1,1.9C224.2,457.1,223.6,457.8,223,458.4z"/>
					</g>
					
						<g id="dark_00000003820116073438219400000001845244716247955869_" style="opacity:0.3;clip-path:url(#SVGID_00000141433405460817716230000009907789745087670150_);">
						<path class="st10" d="M445,374l-3.8,3.3l7.5,7.5c0.7,0.8,1.6,1.4,2.6,1.7c0.8,0.1,1.6-0.3,2.4-1.1c0.7-0.7,1.3-1.3,2.1-1.9
							c0.6-0.4,1.3-0.8,2-0.9c1.3-0.4,2.9,0.4,4.9,2.4c2.3,2.3,3.2,4.2,2.7,5.7c-0.2,0.7-0.6,1.3-1,1.9c-0.5,0.7-1.1,1.3-1.7,1.9
							c-3.8,3.8-7.5,5.8-11.2,6.1s-7.6-1.6-11.6-5.7l-8.1-8.1c-0.6,0.9-1.3,1.7-2.1,2.4c-0.8,0.8-1.8,1.2-2.9,1.1
							c-1.1-0.1-2.5-0.9-4-2.4c-1.1-1-2.1-2.2-3-3.5c-0.4-0.7-0.7-1.4-0.7-2.2c0.1-1.1,0.7-2.1,1.5-2.9l2-1.6l-5.6-5.6
							c-0.6-0.6-1.2-1.3-1.8-1.9c-0.4-0.5-0.7-1.2-0.8-1.8c-0.4-1.4,0.5-3.2,2.8-5.6c2.5-2.5,4.6-3.3,6.5-2.4
							c1.1,0.7,2.2,1.5,3.1,2.5l5.3,5.3c1.5-1.8,2.6-3,3.4-3.9c0.6-0.6,1.3-1.2,1.9-1.8c0.6-0.4,1.3-0.7,2-0.9
							c1.4-0.5,3.3,0.5,5.6,2.8c2.3,2.3,3.2,4.2,2.7,5.7c-0.2,0.7-0.6,1.3-1,1.9C446.2,372.7,445.7,373.4,445,374z"/>
						<path class="st10" d="M450.6,356.3c0.2-5.9,2.3-10.8,6.2-14.8c3.9-3.9,9.2-6.2,14.7-6.2c5.9-0.2,11,1.9,15.3,6.2
							c2.9,2.8,4.9,6.4,5.7,10.4c0.8,3.6,0.6,7.4-0.5,10.9c-1.1,3.3-2.9,6.2-5.3,8.7c-2.5,2.4-5.5,4.2-8.8,5.2
							c-3.6,1.1-7.3,1.2-11,0.5c-3.9-0.8-7.4-2.7-10.2-5.5C452.4,367.4,450.3,362.2,450.6,356.3z M472.1,364.2
							c1.9-0.2,3.6-1,4.9-2.3c1.3-1.4,2.1-3.1,2.2-5c0.3-2.1-0.4-4.1-2.2-5.9s-3.7-2.5-5.7-2.3c-1.9,0.2-3.6,1-5,2.4
							c-1.3,1.4-2.1,3.1-2.3,5c-0.2,2,0.5,3.9,2.3,5.7S470.1,364.4,472.1,364.2L472.1,364.2z"/>
						<path class="st10" d="M489.2,318.1c-0.9-4.3-0.1-7.7,2.3-10.1c3.7-3.7,8.1-4.9,13.1-3.6c-0.2-1.1-0.2-2.1-0.3-3.2
							c0-1.6,0.3-3.2,0.7-4.7c0.5-1.8,1.4-3.5,2.8-4.9c2.8-2.9,6.7-4.3,10.7-4c4.2,0.3,8.9,3,14.1,8.2l9.6,9.6
							c0.6,0.6,1.2,1.3,1.8,2c0.4,0.6,0.7,1.3,0.9,2c0.5,1.5-0.4,3.4-2.7,5.7s-4.2,3.2-5.7,2.7c-0.7-0.2-1.3-0.6-1.9-1
							c-0.7-0.6-1.3-1.2-2-1.8l-9.6-9.6c-3.2-3.2-5.9-3.6-8.1-1.4c-1.3,1.3-1.7,2.6-1.3,3.9c0.6,1.6,1.6,3.1,2.9,4.2l9.6,9.6
							c0.6,0.6,1.3,1.3,1.8,2c0.4,0.6,0.7,1.3,0.9,1.9c0.5,1.5-0.5,3.4-2.8,5.7s-4.2,3.2-5.7,2.7c-0.7-0.2-1.3-0.6-1.9-1
							c-0.7-0.6-1.3-1.2-2-1.8l-9.6-9.6c-3.2-3.2-5.9-3.6-8.1-1.4c-2.2,2.2-1.7,4.9,1.5,8l9.7,9.7c0.6,0.6,1.2,1.3,1.8,2
							c0.4,0.6,0.7,1.3,0.9,2c0.4,1.5-0.5,3.4-2.8,5.7c-2.3,2.3-4.2,3.2-5.7,2.8c-0.7-0.2-1.3-0.6-1.9-1c-0.7-0.6-1.4-1.2-2-1.8
							l-19.2-19.2c-0.6-0.6-1.2-1.3-1.8-2c-0.4-0.6-0.7-1.2-0.9-1.9c-0.4-1.5,0.3-3.3,2.4-5.4c2.1-2.1,3.7-3,5-3
							C486.9,316.3,488.3,317,489.2,318.1z"/>
						<path class="st10" d="M544.3,261.5c-1.8-2.3-1.4-4.7,1.3-7.4c1-1.1,2.2-2.1,3.5-2.9c0.8-0.5,1.7-0.6,2.6-0.3
							c0.7,0.2,1.3,0.5,1.9,1c0.7,0.6,1.3,1.2,2,1.8l19.1,19.1c0.6,0.6,1.2,1.3,1.8,2c0.4,0.6,0.8,1.2,1,1.9
							c0.4,1.5-0.4,3.2-2.3,5.2c-2,2-3.6,3.1-4.7,3.3c-1.2,0.2-2.4-0.2-3.3-1c0.6,3.3-0.7,6.5-3.9,9.6c-3.2,3.2-7.5,4.6-13.1,4.5
							c-5.3-0.1-10.3-2.2-14.1-6c-3.8-3.7-5.9-8.8-5.9-14.1c-0.1-5.6,1.4-10,4.7-13.2c1.1-1.2,2.5-2.1,4-2.7
							c1.1-0.5,2.2-0.8,3.4-0.9C542.9,261.3,543.6,261.4,544.3,261.5z M545.7,282.8c1.2,1.2,2.9,1.9,4.7,1.8c1.8,0,3.6-0.7,4.9-2
							c1.3-1.3,2-3,1.9-4.8c0-1.7-0.7-3.4-1.9-4.6c-1.2-1.2-2.9-1.9-4.6-2c-1.9-0.2-3.7,0.5-5,1.9c-1.4,1.3-2.1,3.1-2,5
							C543.8,279.9,544.5,281.5,545.7,282.8L545.7,282.8z"/>
					</g>
					
						<g id="dark_00000112599670908030909900000012277298571496603790_" style="opacity:0.3;clip-path:url(#SVGID_00000141433405460817716230000009907789745087670150_);">
						<path class="st10" d="M169.8,374l-3.8,3.3l7.5,7.5c0.7,0.8,1.6,1.4,2.6,1.7c0.8,0.1,1.6-0.3,2.4-1.1c0.7-0.7,1.3-1.3,2.1-1.9
							c0.6-0.4,1.3-0.8,2-0.9c1.3-0.4,2.9,0.4,4.9,2.4c2.3,2.3,3.2,4.2,2.7,5.7c-0.2,0.7-0.6,1.3-1,1.9c-0.5,0.7-1.1,1.3-1.7,1.9
							c-3.8,3.8-7.5,5.8-11.2,6.1s-7.6-1.6-11.6-5.7l-8.1-8.1c-0.6,0.9-1.3,1.7-2.1,2.4c-0.8,0.8-1.8,1.2-2.9,1.1
							c-1.1-0.1-2.5-0.9-4-2.4c-1.1-1-2.1-2.2-3-3.5c-0.4-0.7-0.7-1.4-0.7-2.2c0.1-1.1,0.7-2.1,1.5-2.9l2-1.6l-5.6-5.6
							c-0.6-0.6-1.2-1.3-1.8-1.9c-0.4-0.5-0.7-1.2-0.8-1.8c-0.4-1.4,0.5-3.2,2.8-5.6c2.5-2.5,4.6-3.3,6.5-2.4
							c1.1,0.7,2.2,1.5,3.1,2.5l5.3,5.3c1.5-1.8,2.6-3,3.4-3.9c0.6-0.6,1.3-1.2,1.9-1.8c0.6-0.4,1.3-0.7,2-0.9
							c1.4-0.5,3.3,0.5,5.6,2.8c2.3,2.3,3.2,4.2,2.7,5.7c-0.2,0.7-0.6,1.3-1,1.9C171,372.7,170.4,373.4,169.8,374z"/>
						<path class="st10" d="M175.4,356.3c0.2-5.9,2.3-10.8,6.2-14.8c3.9-3.9,9.2-6.2,14.7-6.2c5.9-0.2,11,1.9,15.3,6.2
							c2.9,2.8,4.9,6.4,5.7,10.4c0.8,3.6,0.6,7.4-0.5,10.9c-1.1,3.3-2.9,6.2-5.3,8.7c-2.5,2.4-5.5,4.2-8.8,5.2
							c-3.6,1.1-7.3,1.2-11,0.5c-3.9-0.8-7.4-2.7-10.2-5.5C177.2,367.4,175.1,362.2,175.4,356.3z M196.9,364.2
							c1.9-0.2,3.6-1,4.9-2.3c1.3-1.4,2.1-3.1,2.2-5c0.3-2.1-0.4-4.1-2.2-5.9s-3.7-2.5-5.7-2.3c-1.9,0.2-3.6,1-5,2.4
							c-1.3,1.4-2.1,3.1-2.3,5c-0.2,2,0.5,3.9,2.3,5.7C193,363.7,194.9,364.4,196.9,364.2L196.9,364.2z"/>
						<path class="st10" d="M214,318.1c-0.9-4.3-0.1-7.7,2.3-10.1c3.7-3.7,8.1-4.9,13.1-3.6c-0.2-1.1-0.2-2.1-0.3-3.2
							c0-1.6,0.3-3.2,0.7-4.7c0.5-1.8,1.4-3.5,2.8-4.9c2.8-2.9,6.7-4.3,10.7-4c4.2,0.3,8.9,3,14.1,8.2l9.6,9.6
							c0.6,0.6,1.2,1.3,1.8,2c0.4,0.6,0.7,1.3,0.9,2c0.5,1.5-0.4,3.4-2.7,5.7s-4.2,3.2-5.7,2.7c-0.7-0.2-1.3-0.6-1.9-1
							c-0.7-0.6-1.3-1.2-2-1.8l-9.6-9.6c-3.2-3.2-5.9-3.6-8.1-1.4c-1.3,1.3-1.7,2.6-1.3,3.9c0.6,1.6,1.6,3.1,2.9,4.2l9.6,9.6
							c0.6,0.6,1.3,1.3,1.8,2c0.4,0.6,0.7,1.3,0.9,1.9c0.5,1.5-0.5,3.4-2.8,5.7c-2.3,2.3-4.2,3.2-5.7,2.7c-0.7-0.2-1.3-0.6-1.9-1
							c-0.7-0.6-1.3-1.2-2-1.8l-9.6-9.6c-3.2-3.2-5.9-3.6-8.1-1.4c-2.2,2.2-1.7,4.9,1.5,8l9.7,9.7c0.6,0.6,1.2,1.3,1.8,2
							c0.4,0.6,0.7,1.3,0.9,2c0.4,1.5-0.5,3.4-2.8,5.7c-2.3,2.3-4.2,3.2-5.7,2.8c-0.7-0.2-1.3-0.6-1.9-1c-0.7-0.6-1.4-1.2-2-1.8
							l-19.2-19.2c-0.6-0.6-1.2-1.3-1.8-2c-0.4-0.6-0.7-1.2-0.9-1.9c-0.4-1.5,0.3-3.3,2.4-5.4c2.1-2.1,3.7-3,5-3
							C211.7,316.3,213.1,317,214,318.1z"/>
						<path class="st10" d="M269.1,261.5c-1.8-2.3-1.4-4.7,1.3-7.4c1-1.1,2.2-2.1,3.5-2.9c0.8-0.5,1.7-0.6,2.6-0.3
							c0.7,0.2,1.3,0.5,1.9,1c0.7,0.6,1.3,1.2,2,1.8l19.1,19.1c0.6,0.6,1.2,1.3,1.8,2c0.4,0.6,0.8,1.2,1,1.9
							c0.4,1.5-0.4,3.2-2.3,5.2c-2,2-3.6,3.1-4.7,3.3c-1.2,0.2-2.4-0.2-3.3-1c0.6,3.3-0.7,6.5-3.9,9.6s-7.5,4.6-13.1,4.5
							c-5.3-0.1-10.3-2.2-14.1-6c-3.8-3.7-5.9-8.8-5.9-14.1c-0.1-5.6,1.4-10,4.7-13.2c1.1-1.2,2.5-2.1,4-2.7
							c1.1-0.5,2.2-0.8,3.4-0.9C267.7,261.3,268.4,261.4,269.1,261.5z M270.5,282.8c1.2,1.2,2.9,1.9,4.7,1.8c1.8,0,3.6-0.7,4.9-2
							c1.3-1.3,2-3,1.9-4.8c0-1.7-0.7-3.4-1.9-4.6c-1.2-1.2-2.9-1.9-4.6-2c-1.9-0.2-3.7,0.5-5,1.9c-1.4,1.3-2.1,3.1-2,5
							C268.6,279.9,269.3,281.5,270.5,282.8L270.5,282.8z"/>
					</g>
				</g>
			</g>
			<g style="clip-path:url(#SVGID_00000003102606835851679340000006149178937557221282_);">
				<g>
					<defs>
						<rect id="SVGID_00000137854773972892817670000000623468429346687649_" x="-413.8" y="-280.2" width="550.4" height="550.4"/>
					</defs>
					<clipPath id="SVGID_00000119079273314787475090000015144229343803925124_">
						<use xlink:href="#SVGID_00000137854773972892817670000000623468429346687649_"  style="overflow:visible;"/>
					</clipPath>
					
						<g id="dark_00000099626609292028704260000013373416561857136043_" style="opacity:0.3;clip-path:url(#SVGID_00000119079273314787475090000015144229343803925124_);">
						<path class="st10" d="M91.2,161.2c-0.4,2.8-0.5,5.7-0.4,8.5c0.1,2.6,0.9,6.9,2.6,8.9c7.8,9.3,19.1,10.9,27.3,7.5
							c3.6-1.5,6.2-4.4,8.7-7.3c1.8-2.2,3.7-4.4,4.3-7.2c0.3-1.5,0.3-3.1,0.2-4.6c-0.3-5.3-2.1-10.5-5.1-14.9
							c-5.2-7.5-15.3-11.3-24-8.3c-0.8,0.3-1.6,0.6-2.3,1"/>
						<path class="st3" d="M108,171.3c-0.8,0.8-2,0.8-2.7,0c-0.8-0.8-0.8-2,0-2.7s2-0.8,2.7,0C108.8,169.3,108.8,170.5,108,171.3z
							 M118.2,165.2L118.2,165.2c0.6,2,0.4,3.5-0.6,4.7l-0.2,0.2c-1.1,1.1-2.7,1.5-4.1,1c-0.4-0.1-0.6-0.4-0.5-0.8
							c0.1-0.4,0.4-0.6,0.8-0.5c0.1,0,0.1,0,0.2,0c1,0.4,2.2,0.1,2.9-0.8c1-1.1,0.5-2.8,0.3-3.3c0-0.1,0-0.2-0.1-0.2
							c-0.1-0.3,0.1-0.7,0.5-0.8S118.1,164.8,118.2,165.2C118.2,165.2,118.2,165.2,118.2,165.2z M118,160.4c-0.8,0.8-2,0.8-2.7,0
							c-0.8-0.8-0.8-2,0-2.7c0.8-0.8,2-0.8,2.7,0C118.8,158.4,118.8,159.6,118,160.4L118,160.4z"/>
						<path class="st10" d="M85.8,159.5c2.8,0.4,5.3-1.5,7.4-3.4c0.6-0.5,1.1-1.2,1.3-1.9c0.1-1.2-1-2.2-2.2-2.5
							c-1.2-0.3-2-0.9-3.6-0.4c2-1.8,6.2,0.4,8.7-1.4c1.1-0.8,1.5-2.3,1.8-3.6c0.5-2.1,1-4.3,0.6-6.4c1.6,2.8,2.1,6.2,1.3,9.4
							c3.4,0.2,6.8-0.6,9.9-2.1c-1.9,3.4-5.1,5.8-8.8,6.7c-0.6,0.1-1.2,0.3-1.8,0.7c-1.1,0.8-1.2,2.3-1.4,3.6
							c-0.5,3.1-2.2,7.9-5.1,9.6c0.8-1.7,1.2-3.5,1.5-5.4c0.5-3.2,0.1-2.4-0.4-4.4C92.4,159.9,89,160.9,85.8,159.5z"/>
						<path class="st10" d="M-6.1,261.5c-1.8-2.3-1.4-4.7,1.3-7.4c1-1.1,2.2-2.1,3.5-2.9c0.8-0.5,1.7-0.6,2.6-0.3
							c0.7,0.2,1.3,0.5,1.9,1c0.7,0.6,1.3,1.2,2,1.8l19.1,19.1c0.6,0.6,1.2,1.3,1.8,2c0.4,0.6,0.8,1.2,1,1.9
							c0.4,1.5-0.4,3.2-2.3,5.2c-2,2-3.6,3.1-4.7,3.3c-1.2,0.2-2.4-0.2-3.3-1c0.6,3.3-0.7,6.5-3.9,9.6s-7.5,4.6-13.1,4.5
							c-5.3-0.1-10.3-2.2-14.1-6c-3.8-3.7-5.9-8.8-5.9-14.1c-0.1-5.6,1.4-10,4.7-13.2c1.1-1.2,2.5-2.1,4-2.7
							c1.1-0.5,2.2-0.8,3.4-0.9C-7.5,261.3-6.8,261.4-6.1,261.5z M-4.7,282.8c1.2,1.2,2.9,1.9,4.7,1.8c1.8,0,3.6-0.7,4.9-2
							c1.3-1.3,2-3,1.9-4.8c0-1.7-0.7-3.4-1.9-4.6c-1.2-1.2-2.9-1.9-4.6-2c-1.9-0.2-3.7,0.5-5,1.9c-1.4,1.3-2.1,3.1-2,5
							C-6.6,279.9-5.9,281.5-4.7,282.8L-4.7,282.8z"/>
						<path class="st10" d="M31.1,237.4l-3.8,3.3l7.5,7.5c0.7,0.8,1.6,1.4,2.6,1.7c0.8,0.1,1.6-0.3,2.4-1.1c0.6-0.7,1.3-1.3,2.1-1.9
							c0.6-0.4,1.3-0.8,2-0.9c1.3-0.4,2.9,0.4,4.9,2.4c2.3,2.3,3.2,4.2,2.7,5.7c-0.2,0.7-0.6,1.3-1,1.9c-0.5,0.7-1.1,1.3-1.7,1.9
							c-3.8,3.8-7.5,5.8-11.2,6.1c-3.7,0.3-7.6-1.6-11.7-5.7l-8.1-8.1c-0.6,0.9-1.3,1.7-2.1,2.4c-0.8,0.8-1.8,1.2-2.9,1.1
							c-1.1-0.1-2.5-0.9-4-2.4c-1.1-1-2.1-2.2-3-3.5c-0.4-0.7-0.7-1.4-0.7-2.2c0.1-1.1,0.7-2.1,1.5-2.9l2-1.6l-5.6-5.6
							c-0.6-0.6-1.2-1.3-1.8-1.9c-0.4-0.5-0.7-1.2-0.8-1.8c-0.4-1.4,0.5-3.2,2.8-5.6c2.5-2.5,4.6-3.3,6.5-2.4
							c1.1,0.7,2.2,1.5,3.1,2.5l5.3,5.3c1.5-1.8,2.6-3,3.4-3.9c0.6-0.6,1.3-1.2,1.9-1.8c0.6-0.4,1.3-0.7,2-0.9
							c1.4-0.5,3.3,0.4,5.6,2.8c2.3,2.3,3.2,4.2,2.7,5.7c-0.2,0.7-0.6,1.3-1,1.9C32.4,236.2,31.8,236.8,31.1,237.4z"/>
						<path class="st10" d="M66.9,204.2c2.2,2.2,3.3,4.5,3.3,6.6c0,2-0.7,3.9-2.1,5.3l-13,13c1,1,2.5,1.3,4.4,0.7
							c1.8-0.4,3.4-1.3,4.6-2.6c1.7-1.6,3.2-3.5,4.3-5.6l0.4-0.8c0.3-1,0.9-2,1.6-2.8c1.2-1.2,3-1.4,5.5-0.6c1.2,0.4,2.3,1,3.2,1.8
							c3.2,3.2,1,8.7-6.8,16.5c-2.4,2.5-5.4,4.5-8.6,5.8c-2.7,1.1-5.7,1.5-8.6,1.2c-5-0.6-9.8-2.8-13.3-6.4
							c-4.6-4.6-6.8-9.7-6.5-15.5c0.2-5.7,2.6-10.8,7-15.3c5.1-5.1,10.6-7,16.5-5.8C61.9,200.5,64.7,202,66.9,204.2z M57,217.3
							c1.4-1.4,1.5-2.7,0.3-3.8c-0.8-0.8-1.9-1.2-3-1.1c-1.4,0.2-2.6,0.9-3.5,2c-1.2,1.4-2,3.1-2,5c-0.2,2.2,0.2,3.8,1.3,4.9
							L57,217.3z"/>
						<path class="st10" d="M85.4,183.2l-3.8,3.3l7.5,7.5c0.7,0.8,1.6,1.4,2.6,1.7c0.8,0.1,1.6-0.3,2.4-1.1c0.6-0.7,1.3-1.3,2.1-1.9
							c0.6-0.4,1.3-0.8,2-0.9c1.3-0.4,2.9,0.4,4.9,2.4c2.3,2.3,3.2,4.2,2.7,5.7c-0.2,0.7-0.6,1.3-1,1.9c-0.5,0.7-1.1,1.3-1.7,1.9
							c-3.8,3.8-7.5,5.8-11.2,6.1c-3.7,0.3-7.5-1.6-11.6-5.7l-8.1-8.1c-0.6,0.9-1.3,1.7-2.1,2.4c-0.8,0.8-1.8,1.2-2.9,1.1
							c-1.1-0.1-2.5-0.9-4-2.4c-1.1-1.1-2.1-2.2-3-3.5c-0.4-0.7-0.7-1.4-0.7-2.2c0.1-1.1,0.7-2.1,1.5-2.9l2-1.6l-5.6-5.6
							c-0.6-0.6-1.2-1.3-1.8-1.9c-0.4-0.5-0.7-1.2-0.8-1.8c-0.4-1.4,0.5-3.2,2.8-5.6c2.5-2.5,4.6-3.3,6.5-2.4
							c1.1,0.7,2.2,1.5,3.1,2.5l5.3,5.3c1.5-1.8,2.6-3,3.4-3.9c0.6-0.6,1.3-1.2,1.9-1.8c0.6-0.4,1.3-0.7,2-0.9
							c1.4-0.5,3.3,0.5,5.6,2.8c2.3,2.3,3.2,4.2,2.7,5.7c-0.2,0.7-0.6,1.3-1,1.9C86.6,181.9,86,182.6,85.4,183.2z"/>
					</g>
					
						<g id="dark_00000023271733506290284900000003916377876741275033_" style="opacity:0.3;clip-path:url(#SVGID_00000119079273314787475090000015144229343803925124_);">
						<path class="st10" d="M32.2,98.8l-3.8,3.3l7.5,7.5c0.7,0.8,1.6,1.4,2.6,1.7c0.8,0.1,1.6-0.3,2.4-1.1c0.7-0.7,1.3-1.3,2.1-1.9
							c0.6-0.4,1.3-0.8,2-0.9c1.3-0.4,2.9,0.4,4.9,2.4c2.3,2.3,3.2,4.2,2.7,5.7c-0.2,0.7-0.6,1.3-1,1.9c-0.5,0.7-1.1,1.3-1.7,1.9
							c-3.8,3.8-7.5,5.8-11.2,6.1c-3.7,0.3-7.6-1.6-11.6-5.7l-8.1-8.1c-0.6,0.9-1.3,1.7-2.1,2.4c-0.8,0.8-1.8,1.2-2.9,1.1
							c-1.1-0.1-2.5-0.9-4-2.4c-1.1-1-2.1-2.2-3-3.5c-0.4-0.7-0.7-1.4-0.7-2.2c0.1-1.1,0.7-2.1,1.5-2.9l2-1.6l-5.6-5.6
							c-0.6-0.6-1.2-1.3-1.8-1.9c-0.4-0.5-0.7-1.2-0.8-1.8c-0.4-1.4,0.5-3.2,2.8-5.6c2.5-2.5,4.6-3.3,6.5-2.4
							c1.1,0.7,2.2,1.5,3.1,2.5l5.3,5.3c1.5-1.8,2.6-3,3.4-3.9c0.6-0.6,1.3-1.2,1.9-1.8c0.6-0.4,1.3-0.7,2-0.9
							c1.4-0.5,3.3,0.5,5.6,2.8c2.3,2.3,3.2,4.2,2.7,5.7c-0.2,0.7-0.6,1.3-1,1.9C33.4,97.5,32.8,98.1,32.2,98.8z"/>
						<path class="st10" d="M37.8,81.1c0.2-5.9,2.3-10.8,6.2-14.8c3.9-3.9,9.2-6.2,14.7-6.2c5.9-0.2,11,1.9,15.3,6.2
							c2.9,2.8,4.9,6.4,5.7,10.4c0.8,3.6,0.6,7.4-0.5,10.9c-1.1,3.3-2.9,6.2-5.3,8.7c-2.5,2.4-5.5,4.2-8.8,5.2
							c-3.6,1.1-7.3,1.2-11,0.5c-3.9-0.8-7.4-2.7-10.2-5.5C39.6,92.2,37.5,87,37.8,81.1z M59.3,89c1.9-0.2,3.6-1,4.9-2.3
							c1.3-1.4,2.1-3.1,2.2-5c0.3-2.1-0.4-4.1-2.2-5.9c-1.8-1.8-3.7-2.5-5.7-2.3c-1.9,0.2-3.6,1-5,2.4c-1.3,1.4-2.1,3.1-2.3,5
							c-0.2,2,0.5,3.9,2.3,5.7C55.4,88.5,57.3,89.2,59.3,89L59.3,89z"/>
						<path class="st10" d="M76.4,42.9c-0.9-4.3-0.1-7.7,2.3-10.1c3.7-3.7,8.1-4.9,13.1-3.6c-0.2-1.1-0.2-2.1-0.3-3.2
							c0-1.6,0.3-3.2,0.7-4.7c0.5-1.8,1.4-3.5,2.8-4.9c2.8-2.9,6.7-4.3,10.7-4c4.2,0.3,8.9,3,14.1,8.2l9.6,9.6
							c0.6,0.6,1.2,1.3,1.8,2c0.4,0.6,0.7,1.3,0.9,2c0.5,1.5-0.4,3.4-2.7,5.7s-4.2,3.2-5.7,2.7c-0.7-0.2-1.3-0.6-1.9-1
							c-0.7-0.6-1.3-1.2-2-1.8l-9.6-9.6c-3.2-3.2-5.9-3.6-8.1-1.4c-1.3,1.3-1.7,2.6-1.3,3.9c0.6,1.6,1.6,3.1,2.9,4.2l9.6,9.6
							c0.6,0.6,1.3,1.3,1.8,2c0.4,0.6,0.7,1.3,0.9,1.9c0.5,1.5-0.5,3.4-2.8,5.7s-4.2,3.2-5.7,2.7c-0.7-0.2-1.3-0.6-1.9-1
							c-0.7-0.6-1.3-1.2-2-1.8l-9.6-9.6c-3.2-3.2-5.9-3.6-8.1-1.4c-2.2,2.2-1.7,4.9,1.5,8l9.7,9.7c0.6,0.6,1.2,1.3,1.8,2
							c0.4,0.6,0.7,1.3,0.9,2c0.4,1.5-0.5,3.4-2.8,5.7c-2.3,2.3-4.2,3.2-5.7,2.8c-0.7-0.2-1.3-0.6-1.9-1c-0.7-0.6-1.4-1.2-2-1.8
							L68,53.2c-0.6-0.6-1.2-1.3-1.8-2c-0.4-0.6-0.7-1.2-0.9-1.9c-0.4-1.5,0.3-3.3,2.4-5.4c2.1-2.1,3.7-3,5-3
							C74.1,41.1,75.5,41.8,76.4,42.9z"/>
						<path class="st10" d="M131.5-13.7c-1.8-2.3-1.4-4.7,1.3-7.4c1-1.1,2.2-2.1,3.5-2.9c0.8-0.5,1.7-0.6,2.6-0.3
							c0.7,0.2,1.3,0.5,1.9,1c0.7,0.6,1.3,1.2,2,1.8l19.1,19.1c0.6,0.6,1.2,1.3,1.8,2c0.4,0.6,0.8,1.2,1,1.9
							c0.4,1.5-0.4,3.2-2.3,5.2c-2,2-3.6,3.1-4.7,3.3c-1.2,0.2-2.4-0.2-3.3-1c0.6,3.3-0.7,6.5-3.9,9.6s-7.5,4.6-13.1,4.5
							c-5.3-0.1-10.3-2.2-14.1-6c-3.8-3.7-5.9-8.8-5.9-14.1c-0.1-5.6,1.4-10,4.7-13.2c1.1-1.2,2.5-2.1,4-2.7
							c1.1-0.5,2.2-0.8,3.4-0.9C130.1-13.9,130.8-13.9,131.5-13.7z M132.9,7.6c1.2,1.2,2.9,1.9,4.7,1.8c1.8,0,3.6-0.7,4.9-2
							c1.3-1.3,2-3,1.9-4.8c0-1.7-0.7-3.4-1.9-4.6c-1.2-1.2-2.9-1.9-4.6-2c-1.9-0.2-3.7,0.5-5,1.9c-1.4,1.3-2.1,3.1-2,5
							C131,4.7,131.7,6.3,132.9,7.6L132.9,7.6z"/>
					</g>
				</g>
			</g>
			<g style="clip-path:url(#SVGID_00000003102606835851679340000006149178937557221282_);">
				<g>
					<defs>
						<rect id="SVGID_00000140720899117520358930000012022976871675745214_" x="-413.8" y="270.2" width="550.4" height="550.4"/>
					</defs>
					<clipPath id="SVGID_00000180324753460226829590000016764786327753285762_">
						<use xlink:href="#SVGID_00000140720899117520358930000012022976871675745214_"  style="overflow:visible;"/>
					</clipPath>
					
						<g id="dark_00000081611279710950287860000016308795753000530335_" style="opacity:0.3;clip-path:url(#SVGID_00000180324753460226829590000016764786327753285762_);">
						<path class="st10" d="M131.5,536.7c-1.8-2.3-1.4-4.7,1.3-7.4c1-1.1,2.2-2.1,3.5-2.9c0.8-0.5,1.7-0.6,2.6-0.3
							c0.7,0.2,1.3,0.5,1.9,1c0.7,0.6,1.3,1.2,2,1.8l19.1,19.1c0.6,0.6,1.2,1.3,1.8,2c0.4,0.6,0.8,1.2,1,1.9
							c0.4,1.5-0.4,3.2-2.3,5.2c-2,2-3.6,3.1-4.7,3.3c-1.2,0.2-2.4-0.2-3.3-1c0.6,3.3-0.7,6.5-3.9,9.6c-3.2,3.2-7.5,4.6-13.1,4.5
							c-5.3-0.1-10.3-2.2-14.1-6c-3.8-3.7-5.9-8.8-5.9-14.1c-0.1-5.6,1.4-10,4.7-13.2c1.1-1.2,2.5-2.1,4-2.7
							c1.1-0.5,2.2-0.8,3.4-0.9C130.1,536.5,130.8,536.6,131.5,536.7z M132.9,558c1.2,1.2,2.9,1.9,4.7,1.8c1.8,0,3.6-0.7,4.9-2
							c1.3-1.3,2-3,1.9-4.8c0-1.7-0.7-3.4-1.9-4.6c-1.2-1.2-2.9-1.9-4.6-2c-1.9-0.2-3.7,0.5-5,1.9c-1.4,1.3-2.1,3.1-2,5
							C131,555.1,131.7,556.7,132.9,558L132.9,558z"/>
					</g>
					
						<g id="dark_00000129174774643637954130000009454444566919927171_" style="opacity:0.3;clip-path:url(#SVGID_00000180324753460226829590000016764786327753285762_);">
						<path class="st10" d="M-6.1,261.5c-1.8-2.3-1.4-4.7,1.3-7.4c1-1.1,2.2-2.1,3.5-2.9c0.8-0.5,1.7-0.6,2.6-0.3
							c0.7,0.2,1.3,0.5,1.9,1c0.7,0.6,1.3,1.2,2,1.8l19.1,19.1c0.6,0.6,1.2,1.3,1.8,2c0.4,0.6,0.8,1.2,1,1.9
							c0.4,1.5-0.4,3.2-2.3,5.2c-2,2-3.6,3.1-4.7,3.3c-1.2,0.2-2.4-0.2-3.3-1c0.6,3.3-0.7,6.5-3.9,9.6s-7.5,4.6-13.1,4.5
							c-5.3-0.1-10.3-2.2-14.1-6c-3.8-3.7-5.9-8.8-5.9-14.1c-0.1-5.6,1.4-10,4.7-13.2c1.1-1.2,2.5-2.1,4-2.7
							c1.1-0.5,2.2-0.8,3.4-0.9C-7.5,261.3-6.8,261.4-6.1,261.5z M-4.7,282.8c1.2,1.2,2.9,1.9,4.7,1.8c1.8,0,3.6-0.7,4.9-2
							c1.3-1.3,2-3,1.9-4.8c0-1.7-0.7-3.4-1.9-4.6c-1.2-1.2-2.9-1.9-4.6-2c-1.9-0.2-3.7,0.5-5,1.9c-1.4,1.3-2.1,3.1-2,5
							C-6.6,279.9-5.9,281.5-4.7,282.8L-4.7,282.8z"/>
					</g>
				</g>
			</g>
		</g>
	</g>
</g>
</svg>
