<svg xmlns="http://www.w3.org/2000/svg" viewBox="0 0 73 80"><g id="dark"><path d="M52.79,12.53a25.54,25.54,0,0,0-3.65-1.47,21.31,21.31,0,0,1-3.43,3.28,28.72,28.72,0,0,0,10.71,6.32,2,2,0,0,1-.07,3.83,23.19,23.19,0,0,1-6.39.88A23.53,23.53,0,0,1,37.68,22l-.36-.21a5.3,5.3,0,0,0-1.68-.83l-.24,0c-1,0-2.15.9-3.29,1.76l-.4.31c-3.48,2.6-9.43,5.65-14.74,5.65a11.8,11.8,0,0,1-3.1-.4,2,2,0,0,1-.14-3.81,26.73,26.73,0,0,0,7.07-4,13.14,13.14,0,0,0,2.53-2.16,16.51,16.51,0,0,1-4.67-1.88,60.07,60.07,0,0,0-9.77,9C6.09,28.33,2.36,33.91,2,38,.34,56.8,11,71,23.76,76.33c5.51,2.31,11.7,2,17.64,1.5,4.38-.36,9-.78,12.66-3.13a23.5,23.5,0,0,0,5.2-4.86A46.37,46.37,0,0,0,70,48C72.52,34,65.53,18.77,52.79,12.53ZM26,46a3,3,0,1,1,3-3A3,3,0,0,1,26,46Zm17.82,4.57,0,.1C42.32,53.44,40.4,54.9,38,55h-.33a6,6,0,0,1-5.54-3.44,1,1,0,0,1,1.65-1.14,1.2,1.2,0,0,1,.13.23A4,4,0,0,0,38,53c2.39-.1,3.63-2.47,4-3.25a2.23,2.23,0,0,1,.18-.32,1,1,0,1,1,1.64,1.14ZM49,45a3,3,0,1,1,3-3A3,3,0,0,1,49,45Z"/><path d="M14.54,8.65c2.63,3.47,7.47,4.27,11.83,4.43a5.21,5.21,0,0,0,3.51-.73c1.48-1.17,1.3-3.54.35-5.17S29,4,26.76,2.74C31,3,33.19,10,37.82,10.69c2.12.31,4.15-.88,6-2C46.65,6.88,49.59,5,51.5,2.22A19.3,19.3,0,0,1,42.59,14,30.76,30.76,0,0,0,55.8,22.56a21.73,21.73,0,0,1-17.08-2.3A8.07,8.07,0,0,0,36,19c-2-.32-3.81,1.19-5.44,2.42-3.93,2.94-11.08,6.33-16.1,4.92A28.87,28.87,0,0,0,22,22c4-3,2.7-2.54,4.48-5.3C21.33,16.33,16.48,13.69,14.54,8.65Z"/></g></svg>