<svg xmlns="http://www.w3.org/2000/svg" viewBox="0 0 557 102"><defs><style>.cls-1{fill:tomato;}.cls-2{fill:#30a72a;}</style></defs><g id="light"><path class="cls-1" d="M530.79,28.53a22.36,22.36,0,0,0-7.07-2.24,32.05,32.05,0,0,0-7.82.29c-5.9.72-11.93,1.62-17.13,4.47-4.61,2.53-8.29,6.44-11.88,10.28-2.8,3-6.53,8.58-6.89,12.67-1.66,18.8,9,33,21.76,38.33,5.51,2.31,11.7,2,17.64,1.5,4.38-.36,9-.78,12.66-3.13a23.5,23.5,0,0,0,5.2-4.86A46.37,46.37,0,0,0,548,64C550.52,50,543.53,34.77,530.79,28.53ZM504,62a3,3,0,1,1,3-3A3,3,0,0,1,504,62Zm17.82,4.57-.05.1C520.32,69.44,518.4,70.9,516,71h-.33a6,6,0,0,1-5.54-3.44,1,1,0,0,1,1.65-1.14,1.2,1.2,0,0,1,.13.23A4,4,0,0,0,516,69c2.39-.1,3.63-2.47,4-3.25a2.23,2.23,0,0,1,.18-.32,1,1,0,1,1,1.64,1.14ZM527,61a3,3,0,1,1,3-3A3,3,0,0,1,527,61Z"/><path class="cls-2" d="M492.54,24.65c2.63,3.47,7.47,4.27,11.83,4.43a5.21,5.21,0,0,0,3.51-.73c1.48-1.17,1.3-3.54.35-5.17S507,20,504.76,18.74c4.24.26,6.43,7.27,11.06,8,2.12.31,4.15-.88,6-2,2.86-1.79,5.8-3.67,7.71-6.45A19.3,19.3,0,0,1,520.59,30a30.76,30.76,0,0,0,13.21,8.54,21.73,21.73,0,0,1-17.08-2.3A8.07,8.07,0,0,0,514,35c-2-.32-3.81,1.19-5.44,2.42-3.93,2.94-11.08,6.33-16.1,4.92A28.87,28.87,0,0,0,500,38c4-3,2.7-2.54,4.48-5.3C499.33,32.33,494.48,29.69,492.54,24.65Z"/><path class="cls-1" d="M46.61,50.22l-7.82-.48V66.3a8.28,8.28,0,0,0,1,4.68c.68,1,2,1.44,3.85,1.44A39.13,39.13,0,0,1,48,72.6a8.63,8.63,0,0,1,3.19,1.14q2.76,1.56,2.76,8,0,7.56-3.37,9.24a11.12,11.12,0,0,1-3.18,1,33.67,33.67,0,0,1-4,.18q-12.51,0-19-5.64T17.87,67.5V49.74a31.82,31.82,0,0,1-4.93.36,5.52,5.52,0,0,1-4.39-2q-1.76-2-1.75-7A30.21,30.21,0,0,1,7.4,34a6.42,6.42,0,0,1,1.69-3.18,7.37,7.37,0,0,1,4.81-1.56l4,.48V17.34a33.26,33.26,0,0,1,.18-4.08,7.56,7.56,0,0,1,1.14-2.88q1.56-3,9.26-3,8.18,0,9.74,4.44a22.43,22.43,0,0,1,.6,6.12V29.7c3.53-.32,6.19-.48,8-.48a34.48,34.48,0,0,1,4.09.18,9.61,9.61,0,0,1,3.18,1.14q3.13,1.56,3.13,9.24T53.94,49a11.08,11.08,0,0,1-3.19,1A34.86,34.86,0,0,1,46.61,50.22Z"/><path class="cls-1" d="M72.1,36.9q10.09-9.36,23.09-9.36a32.69,32.69,0,0,1,23,9.3q10,9.3,10,23.7A31.1,31.1,0,0,1,123,78.24a32.34,32.34,0,0,1-12.56,11.4A34.16,34.16,0,0,1,95.07,93.3a32.82,32.82,0,0,1-15.4-3.9A34,34,0,0,1,67.11,77.88,30.19,30.19,0,0,1,62,60.66Q62,46.26,72.1,36.9Zm15,32.34A12.78,12.78,0,0,0,95,72.18a13.11,13.11,0,0,0,7.93-3q4-3,4-8.88t-3.73-8.76a12.9,12.9,0,0,0-8.05-2.88,12.59,12.59,0,0,0-8.06,3q-3.74,3-3.73,8.82T87.13,69.24Z"/><path class="cls-1" d="M156.63,37.38q5.66-8.52,13.59-8.52,12.27,0,18.28,10.44a39.65,39.65,0,0,1,3.19-3.78,26.09,26.09,0,0,1,5.95-4.32,16.72,16.72,0,0,1,8.42-2.34,20.6,20.6,0,0,1,16.11,7.38q6.5,7.38,6.49,24.42v21a34.86,34.86,0,0,1-.18,4.14A9.61,9.61,0,0,1,227.34,89q-1.56,3.24-9.26,3.24t-9.26-3.36a11.12,11.12,0,0,1-1-3.18,34.86,34.86,0,0,1-.18-4.14v-21q0-10.44-7.46-10.44c-2.8,0-4.71.92-5.71,2.76a16.57,16.57,0,0,0-1.5,7.8v21a34.64,34.64,0,0,1-.18,4.2A9.67,9.67,0,0,1,191.63,89q-1.69,3.24-9.38,3.24T173,88.86a11.12,11.12,0,0,1-1-3.18,34.4,34.4,0,0,1-.19-4.14v-21q0-10.44-7.45-10.44-7.22,0-7.22,10.44V81.78a34.86,34.86,0,0,1-.18,4.14,9.61,9.61,0,0,1-1.14,3.18q-1.8,3.12-9.38,3.12T137.15,89a11.21,11.21,0,0,1-1-3.12,34.64,34.64,0,0,1-.18-4.2V39.42a34.86,34.86,0,0,1,.18-4.14,8.53,8.53,0,0,1,1.14-3.06c1.21-2.16,4-3.24,8.54-3.24s7.42.72,8.78,2.16A8.75,8.75,0,0,1,156.63,37.38Z"/><path class="cls-1" d="M279.41,35.7q.72-6.72,9.5-6.72a24.88,24.88,0,0,1,7,.72,5,5,0,0,1,3.19,2.52,10.29,10.29,0,0,1,1.08,3.18,34.86,34.86,0,0,1,.18,4.14v42a34.86,34.86,0,0,1-.18,4.14,11.12,11.12,0,0,1-1,3.18Q297.45,92,290.89,92c-4.37,0-7.29-.54-8.78-1.62a6.48,6.48,0,0,1-2.58-4.74Q275.08,92,264.68,92t-19.3-9.48a31.15,31.15,0,0,1-8.9-22,30.84,30.84,0,0,1,9-22q9-9.42,19.66-9.42a18.75,18.75,0,0,1,7.45,1.44,16.46,16.46,0,0,1,4.69,2.7A16.22,16.22,0,0,1,279.41,35.7Zm-21.89,25a9.93,9.93,0,0,0,3.13,7.14A10.23,10.23,0,0,0,268.23,71a9.57,9.57,0,0,0,7.39-3.24,10.41,10.41,0,0,0,2.95-7.14,11.09,11.09,0,0,0-2.83-7.26A9.39,9.39,0,0,0,268.17,50a9.75,9.75,0,0,0-7.7,3.36A10.86,10.86,0,0,0,257.52,60.66Z"/><path class="cls-1" d="M346.75,50.22l-7.82-.48V66.3A8.28,8.28,0,0,0,340,71c.68,1,2,1.44,3.85,1.44a39,39,0,0,1,4.33.18,8.63,8.63,0,0,1,3.19,1.14q2.76,1.56,2.76,8,0,7.56-3.36,9.24a11.27,11.27,0,0,1-3.19,1,33.67,33.67,0,0,1-4,.18q-12.51,0-19-5.64T318,67.5V49.74a31.82,31.82,0,0,1-4.93.36,5.52,5.52,0,0,1-4.39-2q-1.74-2-1.74-7a29.67,29.67,0,0,1,.6-7.14,6.42,6.42,0,0,1,1.68-3.18A7.39,7.39,0,0,1,314,29.22l4,.48V17.34a33.26,33.26,0,0,1,.18-4.08,7.56,7.56,0,0,1,1.14-2.88q1.56-3,9.26-3,8.18,0,9.74,4.44a22.43,22.43,0,0,1,.6,6.12V29.7c3.53-.32,6.19-.48,8-.48a34.48,34.48,0,0,1,4.09.18,9.61,9.61,0,0,1,3.18,1.14q3.14,1.56,3.13,9.24T354.08,49a11.12,11.12,0,0,1-3.18,1A35.17,35.17,0,0,1,346.75,50.22Z"/><path class="cls-1" d="M422.63,53q0,7.38-3.67,10.92a11.46,11.46,0,0,1-8.12,3.54h-28.5c0,2.24,1.33,4.12,4,5.64a15.82,15.82,0,0,0,7.94,2.28A33.17,33.17,0,0,0,405.19,74l1.32-.48a12.18,12.18,0,0,1,4.81-1.32q3.85,0,6.62,5.4a13.24,13.24,0,0,1,1.56,5.52q0,10.68-25.61,10.68a38.73,38.73,0,0,1-15.82-3.06,26.87,26.87,0,0,1-10.76-8.1,34.46,34.46,0,0,1-7.57-21.72q0-15.12,9.8-24.18T394,27.66q16.71,0,24.53,11.76A24.4,24.4,0,0,1,422.63,53Zm-25.38,3.54q4.58,0,4.57-3.84a5.41,5.41,0,0,0-2.1-4.44,9.43,9.43,0,0,0-6-1.68A12.18,12.18,0,0,0,386,49.8Q382.1,53,382.1,56.58Z"/><path class="cls-1" d="M466,50.22l-7.82-.48V66.3a8.28,8.28,0,0,0,1,4.68c.68,1,2,1.44,3.85,1.44a39.13,39.13,0,0,1,4.33.18,8.63,8.63,0,0,1,3.19,1.14q2.76,1.56,2.76,8,0,7.56-3.36,9.24a11.27,11.27,0,0,1-3.19,1,33.67,33.67,0,0,1-4,.18q-12.51,0-19-5.64T437.3,67.5V49.74a31.82,31.82,0,0,1-4.93.36,5.52,5.52,0,0,1-4.39-2q-1.75-2-1.75-7a29.55,29.55,0,0,1,.61-7.14,6.42,6.42,0,0,1,1.68-3.18,7.39,7.39,0,0,1,4.81-1.56l4,.48V17.34a33.26,33.26,0,0,1,.18-4.08,7.56,7.56,0,0,1,1.14-2.88q1.56-3,9.26-3,8.17,0,9.74,4.44a22.43,22.43,0,0,1,.6,6.12V29.7c3.53-.32,6.19-.48,8-.48a34.48,34.48,0,0,1,4.09.18,9.61,9.61,0,0,1,3.18,1.14q3.13,1.56,3.13,9.24T473.37,49a11.12,11.12,0,0,1-3.18,1A35.17,35.17,0,0,1,466,50.22Z"/></g></svg>